<?xml version="1.0" encoding="utf-8"?>
<svg viewBox="0 0 500 500" xmlns="http://www.w3.org/2000/svg">
  <circle cx="149.65781" cy="72.35366" r="72.35366" fill="#ff6884" transform="matrix(0.702465, 0, 0, 0.698687, -49.802227, 3.212233)" style=""/>
  <g transform="matrix(0.702465, 0, 0, 0.698687, -49.802227, 3.212233)" style="">
    <path d="M374.98569,150.10933c-2.38782-4.02634-12.71786,.28473-14.617-3.36934-1.89243-3.64087,7.70535-9.1884,13.18875-21.86128,.98892-2.28538,7.22028-16.68721,2.60724-21.13111-8.74399-8.42336-48.75681,26.33772-62.75946,14.96223-3.07312-2.49641-5.22-7.48008-14.52069-15.57149-3.70007-3.21891-5.93738-4.67227-8.10272-4.13154-3.07245,.7672-3.31583,4.87924-6.61044,12.96435-4.94086,12.12525-7.86313,11.39309-10.74188,21.06706-2.13702,7.18146-1.64886,11.35666-4.16357,12.17004-3.55853,1.15111-6.83398-6.46613-11.34381-5.7841-4.60201,.69608-7.38428,9.56506-8.26308,16.20543-1.6492,12.46117,2.92709,20.68385,5.46355,29.33006,2.75638,9.39622,4.39227,23.68587-1.97321,43.91486l-63.00398,177.51414c13.90935-36.42538,54.18352-136.27701,71.1067-173.38261,4.88544-10.71159,10.2796-21.57646,21.3555-25.86449,10.66351-4.12852,25.30847-1.6636,43.9791-6.16153,2.18051-.52519,8.23148-2.06477,8.99307-5.62383,.6297-2.94237-2.9295-4.58475-2.38266-7.34052,.73346-3.69646,7.7326-3.74185,16.33368-8.00648,6.06494-3.00726,9.84341-6.58359,13.09259-9.65913,.97961-.92722,15.5412-14.88094,12.36243-20.24074h-.00018l.00009,.00002Z" fill="#f2f2f2"/>
    <path d="M127.10928,243.56021c-2.66514,.01018-3.52971,6.32414-5.8711,6.20193-2.33303-.1217-2.28651-6.43298-6.92425-12.78085-.83634-1.14471-6.1069-8.35861-9.61909-7.3766-6.65712,1.86118-1.14118,31.5294-10.76458,35.11986-2.1119,.78799-5.17744,.40375-11.83223,2.634-2.64745,.88727-4.00631,1.56601-4.3657,2.78476-.50992,1.72928,1.438,3.03534,4.45563,6.98502,4.52554,5.92349,3.32299,7.14658,7.2404,11.35071,2.90811,3.12094,5.0982,4.08606,4.77178,5.55496-.46175,2.07867-5.14542,1.48849-6.11191,3.89868-.98617,2.45956,2.56399,6.38403,5.56954,8.73132,5.64023,4.40488,10.99632,4.53131,15.97179,5.78116,5.40702,1.35825,12.89254,4.67841,20.98438,13.63937l68.94646,82.14124c-13.86455-17.3367-51.25203-65.91388-64.58076-84.92612-3.84775-5.4884-7.62387-11.27078-6.53265-17.94421,1.05048-6.42496,6.48579-12.90152,9.66525-23.36298,.37138-1.2218,1.36162-4.63586-.16537-6.03656-1.26245-1.15802-3.09547,.11505-4.29025-.94855-1.60258-1.42661,.39461-4.87491,.78308-10.32681,.27396-3.84439-.39114-6.73074-.96313-9.21291-.17245-.74831-2.81955-11.9213-6.3673-11.90765v.00026l.00002-.00003Z" fill="#f2f2f2"/>
    <path d="M180.27805,255.49541l-1.6057-14.33372,.73363-1.08662c3.39481-5.02475,5.12514-9.93187,5.14584-14.58981,.00345-.74052-.03116-1.48116-.06577-2.2355-.13844-2.98993-.3114-6.70657,1.6265-11.03922,1.08662-2.41545,4.13889-8.00778,8.7276-7.31566,1.23543,.17305,2.16982,.74052,2.8792,1.40494,.10384-.16606,.21111-.3322,.3253-.51216,1.4292-2.18018,2.56081-3.11447,3.65088-4.01425,.83746-.69211,1.70262-1.40494,3.05914-3.09377,.59518-.74052,1.05893-1.39113,1.45-1.9379,1.18701-1.65411,2.7373-3.62672,5.47115-3.59212,2.92072,.13844,4.45029,2.55389,5.46423,4.15269,1.80991,2.85149,2.63002,4.90712,3.17332,6.27054,.1973,.49835,.42223,1.05893,.53641,1.23198,.94128,1.38423,8.5927,.08994,11.47525-.38071,6.47475-1.07973,12.07742-2.01402,14.3857,2.06944,1.65421,2.92072,.42567,6.7827-3.7617,11.78674-1.30466,1.55728-2.69234,2.74075-3.92432,3.66823,1.02087,.60909,1.93436,1.54338,2.30479,3.01073h0c.87207,3.47438-2.11441,6.95575-8.87294,10.36099-1.67838,.85127-3.93813,1.9864-7.10455,2.53317-1.49152,.25607-2.83421,.31841-3.98309,.35301-.02425,.66441-.17995,1.38423-.58482,2.12476-1.18701,2.18018-3.65779,3.21831-7.38142,2.96913-4.09737-.21455-7.47136-.99661-10.44748-1.68182-2.59886-.59518-4.83791-1.10043-6.59584-.9828-3.25983,.26299-5.77228,2.87228-8.72061,6.25673l-7.36063,8.60297h-.00009l.00003,.00002Z" fill="#f2f2f2"/>
    <path d="M187.72662,170.15234l-13.45769,5.18892-1.23717-.43405c-5.72153-2.00928-10.90698-2.43832-15.41786-1.27686-.71722,.18452-1.42479,.40582-2.14574,.63066-2.85701,.89227-6.40829,2.00238-11.09074,1.22681-2.61215-.43835-8.79568-1.97234-9.29016-6.58652-.14595-1.23888,.16597-2.28668,.62875-3.1414-.18703-.05826-.37492-.11987-.57793-.18469-2.47137-.82951-3.66219-1.68709-4.80907-2.51334-.88191-.63455-1.79092-1.29057-3.76852-2.17439-.86732-.38786-1.61424-.6714-2.24232-.911-1.90113-.72855-4.2024-1.72791-4.86232-4.38115-.60693-2.86029,1.34159-4.95251,2.63088-6.3389,2.29919-2.47397,4.0795-3.78873,5.26055-4.6601,.43198-.31718,.91721-.67702,1.05565-.83133,1.10017-1.26158-2.09248-8.33446-3.27889-11.0034-2.68672-5.98909-5.01164-11.17153-1.64713-14.44006,2.40561-2.34088,6.45291-2.13218,12.35544,.64896,1.83727,.86698,3.33405,1.90908,4.54367,2.86556,.33022-1.14196,1.00221-2.26268,2.32768-2.99303h0c3.13959-1.72481,7.26457,.28094,12.27275,5.95465,1.24915,1.40753,2.92036,3.30547,4.25237,6.22964,.62601,1.37776,1.02682,2.66074,1.35178,3.76334,.64886-.1451,1.38457-.17702,2.20364,.02676,2.40993,.59518,4.04092,2.72185,4.74434,6.38689,.83176,4.01778,.93111,7.47981,1.02319,10.53241,.08347,2.66489,.16261,4.95882,.72241,6.62943,1.08128,3.08652,4.24245,4.8549,8.26411,6.84837l10.18864,4.93776-.00035,.00009,.00002-.00003Z" fill="#f2f2f2"/>
    <path d="M180.27805,127.92473l-1.6057-14.33373,.73363-1.08663c3.39481-5.02475,5.12514-9.93187,5.14584-14.58981,.00345-.74053-.03116-1.48115-.06577-2.2355-.13844-2.98993-.3114-6.70658,1.6265-11.03922,1.08662-2.41545,4.13889-8.00778,8.7276-7.31566,1.23543,.17305,2.16982,.74053,2.8792,1.40494,.10384-.16606,.21111-.3322,.3253-.51216,1.4292-2.18017,2.56081-3.11447,3.65088-4.01425,.83746-.69211,1.70262-1.40494,3.05914-3.09376,.59518-.74053,1.05893-1.39113,1.45-1.9379,1.18701-1.65412,2.7373-3.62672,5.47115-3.59211,2.92072,.13844,4.45029,2.55389,5.46423,4.15269,1.80991,2.85149,2.63002,4.90712,3.17332,6.27054,.1973,.49835,.42223,1.05893,.53641,1.23198,.94128,1.38423,8.5927,.08993,11.47525-.38071,6.47475-1.07973,12.07742-2.01403,14.3857,2.06944,1.65421,2.92071,.42567,6.7827-3.7617,11.78674-1.30466,1.55728-2.69234,2.74075-3.92432,3.66823,1.02087,.60908,1.93436,1.54338,2.30479,3.01073h0c.87207,3.47438-2.11441,6.95575-8.87294,10.361-1.67838,.85127-3.93813,1.98641-7.10455,2.53318-1.49152,.25608-2.83421,.3184-3.98309,.35301-.02425,.66441-.17995,1.38423-.58482,2.12476-1.18701,2.18017-3.65779,3.2183-7.38142,2.96913-4.09737-.21456-7.47136-.99661-10.44748-1.68182-2.59886-.59519-4.83791-1.10044-6.59584-.9828-3.25983,.26298-5.77228,2.87229-8.72061,6.25673l-7.36063,8.60297h-.00006Z" fill="#f2f2f2"/>
    <path d="M194.94398,406.15503l-3.00381-1.88257-.72672-3.46747,.72672,3.46747-3.50209,.40143c-.0554-.32529-.24573-1.07281-.53287-2.24249-1.56764-6.40897-6.34666-25.91281-10.33328-56.62885-2.78235-21.44174-4.35689-43.48557-4.68219-65.52948-.3253-22.07843,.71982-38.79309,1.55728-52.22697,.63326-10.13254,1.40158-19.78062,2.15591-29.17963,2.00713-25.10995,3.90005-48.8287,2.49158-75.08754-.3114-5.86221-.96555-18.06419-8.09425-31.0483-4.13542-7.53023-9.8315-14.216-16.93259-19.86365l4.41566-5.55072c7.83818,6.24284,14.13988,13.64852,18.73215,22.0093,7.90395,14.39596,8.61687,27.69156,8.95943,34.07974,1.43265,26.72256-.481,50.66977-2.50893,76.02191-.74751,9.3643-1.51576,18.97087-2.14555,29.06189-.83055,13.30942-1.86523,29.87854-1.54338,51.67328,.31841,21.78085,1.8756,43.55478,4.61987,64.72662,3.93813,30.32849,8.64803,49.54163,10.19485,55.85367,.82365,3.37064,.99661,4.07657,.15225,5.41238v-.00009l-.00005,.00006Z" fill="#f2f2f2"/>
    <path d="M141.06972,84.12777c-.2907,0-.58482-.0069-.88243-.02771-6.03526-.3253-11.62405-3.93812-16.61419-10.73472-2.33933-3.19759-3.5367-6.84502-5.92453-14.11917-.37027-1.12124-2.16982-6.81041-3.26335-14.63823-.71637-5.11478-.62635-7.25335,.38762-9.14283,1.1247-2.10405,2.94496-3.57131,4.9936-4.56101-.08993-.6783-.01735-1.37732,.27688-2.09024,1.20773-2.95532,4.41912-2.5677,6.15636-2.38084,.87897,.11073,1.97598,.25608,3.15952,.19376,1.86179-.08993,2.86192-.64369,4.37761-1.47425,1.45-.79594,3.25291-1.78565,5.92798-2.33242,5.27393-1.10044,9.69305,.39452,11.14995,.88588,7.66513,2.55389,11.44411,8.51303,15.81825,15.41337,.87207,1.38423,3.86545,6.42279,5.84142,13.33013,1.42574,4.98324,1.22507,7.19802,.79594,8.84524-.87207,3.38445-2.93106,5.32235-8.16003,9.59967-5.46078,4.47799-8.20154,6.72047-10.55476,8.0839-5.47806,3.16298-8.91791,5.1493-13.48582,5.1493v.00018Z" fill="#f2f2f2"/>
  </g>
  <polygon points="112.598 114.182 112.549 114.988 110.982 140.734 147.496 144.55 137.289 111.194 112.598 114.182" fill="#a0616a" style=""/>
  <path d="M 223.299 112.403 C 223.335 112.408 223.389 112.418 223.454 112.428 C 224.72 112.637 232.382 113.813 240.106 110.886 C 243.377 109.646 242.261 109.337 249.549 105.027 C 258.093 99.974 260.285 100.01 260.921 97.653 C 262.192 92.948 255.409 85.552 250.918 86.039 C 249.736 86.167 248.47 86.868 246.501 86.393 C 246.069 86.288 244.174 85.831 243.251 84.272 C 242.427 82.881 243.125 81.877 242.794 80.737 C 241.924 77.743 234.677 76.249 228.323 77.304 C 224.668 77.911 221.826 79.569 216.29 82.861 C 206.655 88.588 201.837 91.452 200.755 95.84 C 199.728 99.999 202.191 101.792 200.4 106.244 C 198.732 110.388 196.083 110.112 195.17 113.466 C 193.703 118.862 199.149 124.785 201.417 127.252 C 203.904 129.957 206.282 131.441 209.44 133.412 C 213.403 135.886 215.385 137.123 217.767 136.997 C 222.087 136.769 234.922 137.545 235.089 133.99 C 235.153 132.657 250.72 133.749 243.054 119.404 C 242.114 117.645 223.695 119.523 223.453 118.513" fill="#2f2e41" style=""/>
  <polygon points="208.134 119.073 208.085 119.88 206.518 145.624 243.031 149.441 232.824 116.085 208.134 119.073" fill="#ffb6b6" style=""/>
  <path id="uuid-4888b71b-7976-4755-8b03-01f72d96d872-483" d="M 312.792 250.637 C 318.649 256.911 326.652 258.99 330.666 255.282 C 334.679 251.574 333.184 243.484 327.323 237.209 C 325.016 234.67 322.133 232.718 318.912 231.515 L 293.757 205.245 L 281.614 217.249 L 307.702 241.872 C 308.671 245.155 310.415 248.162 312.792 250.637 Z" fill="#ffb6b6" style=""/>
  <g transform="matrix(0.702465, 0, 0, 0.698687, -49.802227, 3.212233)" style="">
    <path id="uuid-1b303e70-1adc-4360-a765-4c0e69083ad5-484" d="M441.04404,328.35461c11.59656,3.95901,23.03925,1.18463,25.55759-6.19592,2.51834-7.38052-4.84091-16.57068-16.44211-20.52954-4.61252-1.64496-9.55191-2.16144-14.40491-1.5061l-49.34689-16.15399-7.08701,23.31863,49.39969,13.44928c3.44058,3.487,7.66635,6.09912,12.32364,7.61768v-.00003Z" fill="#a0616a"/>
    <path d="M277.29608,187.07935s-30.58951,36.80058-12.89297,52.02664,96.72427,71.59186,96.72427,71.59186l30.80875,4.79745,7.87991-29.78098-69.56775-51.54926-52.95221-47.08571v-.00002Z" fill="#55befa"/>
  </g>
  <circle cx="393.76419" cy="144.24371" r="34.64236" fill="#ffb6b6" transform="matrix(0.702465, 0, 0, 0.698687, -49.802227, 3.212233)" style=""/>
  <path d="M 218.965 105.56 C 219.001 105.567 219.054 105.576 219.119 105.586 C 220.387 105.794 228.048 106.97 235.772 104.044 C 239.044 102.805 237.927 102.495 245.215 98.185 C 253.759 93.131 255.952 93.167 256.588 90.811 C 257.858 86.106 251.074 78.709 246.584 79.196 C 245.402 79.325 244.136 80.026 242.167 79.55 C 241.734 79.446 239.84 78.989 238.917 77.43 C 238.094 76.039 238.791 75.035 238.46 73.895 C 237.59 70.9 230.344 69.406 223.989 70.462 C 220.335 71.069 217.492 72.726 211.956 76.018 C 202.321 81.746 197.503 84.61 196.421 88.998 C 195.395 93.157 197.857 94.949 196.066 99.401 C 194.398 103.547 191.748 103.27 190.837 106.623 C 189.37 112.019 194.815 117.943 197.083 120.41 C 199.57 123.114 201.948 124.599 205.106 126.57 C 209.069 129.044 211.05 130.28 213.433 130.155 C 217.752 129.926 222.05 126.033 222.217 122.478 C 222.279 121.145 221.721 120.746 220.338 116.165 C 219.761 114.257 219.361 112.682 219.118 111.671" fill="#2f2e41" style=""/>
  <polygon points="374.028 323.098 399.317 354.54 412.664 334.976 392.995 316.81 374.028 323.098" fill="#ffb6b6" style=""/>
  <path d="M 270.063 246.941 C 270.063 246.941 347.81 256.025 354.246 262.312 C 360.681 268.601 399.317 321.701 399.317 321.701 L 383.161 334.277 L 341.502 290.227 L 252.699 289.538 L 270.063 246.941 Z" fill="#2f2e41" style=""/>
  <polygon points="312.211 246.941 337.501 278.383 350.847 258.819 331.178 240.653 312.211 246.941" fill="#ffb6b6" style=""/>
  <path d="M 333.988 269.3 C 333.988 269.3 328.368 267.902 328.368 272.793 C 328.368 277.684 329.773 292.356 329.773 292.356 C 329.773 292.356 394.4 281.178 394.4 274.19 C 394.4 267.204 376.838 268.601 376.838 268.601 L 351.55 256.723 L 333.988 269.3 Z" fill="#2f2e41" style=""/>
  <polygon points="201.925 407.639 213.866 451.657 232.832 448.163 228.618 402.749 201.925 407.639" fill="#a0616a" style=""/>
  <path d="M 216.676 448.862 L 209.652 450.26 L 204.032 469.124 C 204.032 469.124 213.164 472.617 213.164 479.604 C 213.164 486.591 216.676 491.481 230.726 490.784 C 244.775 490.085 246.179 490.784 246.179 485.194 C 246.179 479.604 235.642 450.26 235.642 450.26 C 235.642 450.26 236.345 438.382 227.916 439.081 C 219.486 439.779 216.676 448.862 216.676 448.862 Z" fill="#2f2e41" style=""/>
  <polygon points="137.708 406.955 138.522 452.539 157.773 453.741 164.795 408.671 137.708 406.955" fill="#a0616a" style=""/>
  <path d="M 141.932 450.509 L 134.776 450.164 L 124.71 467.101 C 124.71 467.101 132.714 472.699 131.005 479.476 C 129.295 486.253 131.505 491.848 145.303 494.57 C 159.102 497.292 160.293 498.31 161.661 492.888 C 163.028 487.466 159.987 456.454 159.987 456.454 C 159.987 456.454 163.574 445.103 155.227 443.741 C 146.879 442.379 141.932 450.509 141.932 450.509 Z" fill="#2f2e41" style=""/>
  <path d="M 145.727 134.453 L 107.793 131.658 L 99.364 142.138 C 99.364 142.138 95.15 212.706 97.96 219.693 C 100.769 226.679 98.662 266.505 98.662 266.505 L 194.288 259.867 L 173.123 209.212 L 173.825 179.868 L 154.859 144.235 L 145.727 134.453 Z" fill="#55befa" style=""/>
  <path d="M 102.877 251.832 C 102.877 251.832 87.423 274.19 93.042 286.068 C 98.662 297.945 136.781 366.911 136.781 366.911 L 131.864 431.191 L 165.581 428.396 L 171.202 359.226 L 147.834 302.837 L 152.049 296.548 L 187.172 339.168 L 199.817 413.229 L 233.536 409.037 L 215.271 300.74 L 193.926 259 L 102.877 251.832 Z" fill="#2f2e41" style=""/>
  <path d="M 236.345 132.357 L 208.246 129.562 L 185.065 151.92 C 185.065 151.92 173.825 184.059 175.933 201.527 C 178.041 218.994 196.305 262.312 196.305 262.312 L 225.105 241.352 L 258.122 242.75 L 258.122 177.34 L 241.263 140.741 L 236.345 132.357 Z" fill="#e6e6e6" style=""/>
  <path d="M 230.892 140.734 C 230.892 140.734 247.05 142.819 254.041 154.779 C 261.032 166.737 311.424 223.008 311.424 223.008 L 301.877 231.697 L 252.223 199.833 L 233.159 167.218 L 230.892 140.734 Z" fill="#e6e6e6" style=""/>
  <path d="M 193.846 254.977 C 193.846 254.977 191.388 283.971 206.842 288.164 C 222.295 292.356 262.336 288.863 262.336 288.863 L 287.625 223.884 L 312.211 253.23 L 336.095 242.051 C 336.095 242.051 310.807 171.484 296.757 171.484 C 282.708 171.484 260.229 191.046 260.229 191.046 L 223.701 239.955 L 193.846 254.977 Z" fill="#2f2e41" style=""/>
  <path d="M 395.804 345.456 C 395.804 345.456 390.185 344.058 390.185 348.95 C 390.185 353.841 391.59 368.512 391.59 368.512 C 391.59 368.512 456.217 357.334 456.217 350.347 C 456.217 343.361 438.656 344.757 438.656 344.757 L 413.366 332.879 L 395.804 345.456 Z" fill="#2f2e41" style=""/>
  <circle cx="212.64658" cy="108.05848" r="18.53961" fill="#2f2e41" transform="matrix(0.702465, 0, 0, 0.698687, -49.802227, 3.212233)" style=""/>
  <circle cx="255.46144" cy="136.41455" r="40.37487" fill="#a0616a" transform="matrix(0.702465, 0, 0, 0.698687, -49.802227, 3.212233)" style=""/>
  <path d="M 120.658 129.45 C 117.644 131.039 109.161 125.208 106.127 117.394 C 104.174 112.367 99.428 113.204 96.399 106.936 C 94.634 103.283 99.904 99.71 99.035 96.552 C 97.46 90.83 99.434 85.71 99.686 85.083 C 101.859 79.67 105.06 79.795 107.641 73.493 C 109.195 69.699 108.198 69.255 109.504 67.315 C 113.274 61.714 124.214 61.5 131.93 64.149 C 134.6 65.065 141.031 60.153 146.251 63.712 C 152.402 67.905 156.493 79.988 155.552 82.203 C 154.98 83.548 151.795 82.178 145.173 83.213 C 139.041 84.172 147.134 88.728 140.233 90.282 C 132.073 92.118 129.615 90.442 127.354 93.01 C 124.964 95.724 124.522 101.217 126.703 104.479 C 127.785 106.097 129.182 106.667 129.006 107.794 C 128.688 109.85 126.851 108.733 126.249 110.913 C 125.548 113.451 131.361 116.777 130.856 117.544 C 130.753 117.699 130.318 117.866 124.643 115.691 C 122.376 114.822 121.503 114.072 121.248 114.35 C 120.837 114.798 118.799 119.304 121.115 121.22 C 124.718 124.202 122.22 125.385 123.863 127.721 C 125.558 130.13 122.574 128.441 120.658 129.45 Z" fill="#2f2e41" style=""/>
  <g transform="matrix(0.702465, 0, 0, 0.698687, -49.802227, 3.212233)" style="">
    <path id="uuid-ef7ff308-5d37-4b39-accd-1daffe73a539-485" d="M252.11357,413.95831c6.4435,10.42282,17.04436,15.54672,23.67683,11.44495,6.63248-4.10175,6.78427-15.87436,.3371-26.30002-2.51825-4.19995-6.00571-7.73578-10.17059-10.31161l-27.85902-43.81714-20.28343,13.51169,29.61751,41.76141c.44316,4.87854,2.04848,9.57996,4.68159,13.71069l.00002,.00003Z" fill="#a0616a"/>
    <path d="M215.34679,200.83791s-47,9-43,32,29.24852,116.72835,29.24852,116.72835l20.75148,23.27164,25-18-21-84-11-70v.00002Z" fill="#55befa"/>
  </g>
  <path id="uuid-2dd9dd70-5e89-4d14-82ab-9056802f8f8e-486" d="M 259.138 295.04 C 263.646 302.334 271.083 305.933 275.75 303.079 C 280.416 300.225 280.543 291.999 276.033 284.704 C 274.272 281.765 271.828 279.288 268.908 277.481 L 249.416 246.817 L 235.144 256.222 L 255.874 285.452 C 256.177 288.862 257.296 292.149 259.138 295.04 Z" fill="#ffb6b6" style=""/>
  <path d="M 215.278 147.73 L 187.475 154.664 C 187.475 154.664 197.211 189.168 199.491 201.538 C 201.773 213.907 249.785 282.06 249.785 282.06 L 264.307 264.781 L 221.782 186.832 L 215.278 147.73 Z" fill="#e6e6e6" style=""/>
</svg>