<?xml version="1.0" encoding="utf-8"?>
<svg viewBox="0 0 500 500" xmlns="http://www.w3.org/2000/svg">
  <polygon points="49.224 64.053 49.171 64.958 47.491 93.879 86.663 98.165 75.713 60.697 49.224 64.053" fill="#a0616a" style=""/>
  <path d="M 167.987 62.054 C 168.025 62.06 168.082 62.07 168.151 62.083 C 169.511 62.317 177.731 63.637 186.016 60.35 C 189.527 58.958 188.329 58.61 196.147 53.769 C 205.313 48.093 207.665 48.132 208.348 45.486 C 209.711 40.2 202.434 31.892 197.617 32.439 C 196.348 32.583 194.99 33.372 192.878 32.836 C 192.413 32.719 190.38 32.206 189.391 30.454 C 188.508 28.892 189.256 27.765 188.9 26.484 C 187.967 23.121 180.192 21.442 173.376 22.628 C 169.456 23.311 166.406 25.172 160.466 28.869 C 150.13 35.303 144.961 38.52 143.8 43.449 C 142.699 48.121 145.341 50.134 143.42 55.136 C 141.63 59.791 138.788 59.48 137.809 63.247 C 136.236 69.309 142.077 75.962 144.51 78.733 C 147.178 81.772 149.73 83.439 153.118 85.654 C 157.369 88.432 159.496 89.821 162.051 89.68 C 166.685 89.425 180.456 90.296 180.635 86.303 C 180.703 84.807 197.403 86.032 189.18 69.918 C 188.171 67.942 168.411 70.053 168.15 68.918" fill="#2f2e41" style=""/>
  <polygon points="151.716 69.546 151.663 70.452 149.982 99.372 189.156 103.66 178.205 66.19 151.716 69.546" fill="#ffb6b6" style=""/>
  <path id="uuid-4888b71b-7976-4755-8b03-01f72d96d872-483" d="M 263.995 217.332 C 270.28 224.38 278.864 226.715 283.17 222.55 C 287.476 218.384 285.872 209.297 279.584 202.247 C 277.11 199.396 274.016 197.202 270.561 195.852 L 243.575 166.343 L 230.548 179.827 L 258.534 207.486 C 259.574 211.176 261.447 214.552 263.995 217.332 Z" fill="#ffb6b6" style=""/>
  <g transform="matrix(0.753618, 0, 0, 0.784832, -125.00222, -60.598976)" style="">
    <path id="uuid-1b303e70-1adc-4360-a765-4c0e69083ad5-484" d="M441.04404,328.35461c11.59656,3.95901,23.03925,1.18463,25.55759-6.19592,2.51834-7.38052-4.84091-16.57068-16.44211-20.52954-4.61252-1.64496-9.55191-2.16144-14.40491-1.5061l-49.34689-16.15399-7.08701,23.31863,49.39969,13.44928c3.44058,3.487,7.66635,6.09912,12.32364,7.61768v-.00003Z" fill="#a0616a"/>
    <path d="M277.29608,187.07935s-30.58951,36.80058-12.89297,52.02664,96.72427,71.59186,96.72427,71.59186l30.80875,4.79745,7.87991-29.78098-69.56775-51.54926-52.95221-47.08571v-.00002Z" fill="#55befa"/>
  </g>
  <circle cx="771.065" cy="9.986" r="34.642" fill="#ffb6b6" style="" transform="matrix(0.753618, 0, 0, 0.784832, -409.342834, 44.770832)"/>
  <path d="M 163.337 54.369 C 163.375 54.375 163.432 54.385 163.502 54.397 C 164.862 54.631 173.08 55.952 181.367 52.664 C 184.878 51.272 183.68 50.925 191.498 46.082 C 200.663 40.407 203.016 40.447 203.698 37.8 C 205.061 32.514 197.784 24.206 192.967 24.754 C 191.698 24.898 190.341 25.685 188.227 25.152 C 187.764 25.034 185.732 24.521 184.742 22.769 C 183.857 21.207 184.607 20.08 184.251 18.798 C 183.319 15.435 175.543 13.755 168.726 14.943 C 164.806 15.624 161.756 17.487 155.817 21.183 C 145.48 27.617 140.311 30.835 139.151 35.764 C 138.049 40.435 140.691 42.449 138.77 47.45 C 136.981 52.106 134.137 51.795 133.16 55.563 C 131.585 61.624 137.427 68.276 139.86 71.047 C 142.529 74.087 145.08 75.755 148.468 77.969 C 152.72 80.746 154.845 82.136 157.402 81.995 C 162.036 81.739 166.645 77.365 166.825 73.371 C 166.891 71.875 166.292 71.425 164.808 66.281 C 164.19 64.137 163.762 62.367 163.501 61.232" fill="#2f2e41" style=""/>
  <polygon points="329.691 298.727 356.822 334.044 371.14 312.07 350.039 291.664 329.691 298.727" fill="#ffb6b6" style=""/>
  <path d="M 218.155 213.181 C 218.155 213.181 301.563 223.384 308.467 230.447 C 315.373 237.51 356.822 297.157 356.822 297.157 L 339.489 311.285 L 294.796 261.803 L 199.527 261.028 L 218.155 213.181 Z" fill="#2f2e41" style=""/>
  <polygon points="263.373 213.181 290.502 248.498 304.821 226.523 283.721 206.117 263.373 213.181" fill="#ffb6b6" style=""/>
  <path d="M 286.735 238.295 C 286.735 238.295 280.706 236.725 280.706 242.219 C 280.706 247.714 282.213 264.194 282.213 264.194 C 282.213 264.194 351.546 251.638 351.546 243.788 C 351.546 235.94 332.706 237.51 332.706 237.51 L 305.575 224.168 L 286.735 238.295 Z" fill="#2f2e41" style=""/>
  <polygon points="145.054 393.691 157.866 443.136 178.214 439.212 173.692 388.198 145.054 393.691" fill="#a0616a" style=""/>
  <path d="M 160.88 439.997 L 153.345 441.567 L 147.316 462.756 C 147.316 462.756 157.113 466.68 157.113 474.53 C 157.113 482.378 160.88 487.871 175.953 487.086 C 191.025 486.302 192.532 487.086 192.532 480.808 C 192.532 474.53 181.228 441.567 181.228 441.567 C 181.228 441.567 181.982 428.224 172.939 429.009 C 163.895 429.793 160.88 439.997 160.88 439.997 Z" fill="#2f2e41" style=""/>
  <polygon points="76.162 392.922 77.037 444.128 97.689 445.477 105.222 394.85 76.162 392.922" fill="#a0616a" style=""/>
  <path d="M 80.693 441.846 L 73.017 441.458 L 62.219 460.485 C 62.219 460.485 70.804 466.773 68.97 474.386 C 67.136 481.998 69.509 488.281 84.311 491.34 C 99.113 494.398 100.392 495.542 101.859 489.451 C 103.326 483.361 100.064 448.524 100.064 448.524 C 100.064 448.524 103.911 435.774 94.956 434.244 C 86.001 432.714 80.693 441.846 80.693 441.846 Z" fill="#2f2e41" style=""/>
  <path d="M 84.765 86.823 L 44.07 83.683 L 35.027 95.456 C 35.027 95.456 30.504 174.723 33.52 182.573 C 36.534 190.421 34.273 235.156 34.273 235.156 L 136.862 227.7 L 114.157 170.799 L 114.91 137.837 L 94.562 97.81 L 84.765 86.823 Z" fill="#55befa" style=""/>
  <path d="M 38.794 218.675 C 38.794 218.675 22.215 243.788 28.244 257.131 C 34.273 270.473 75.168 347.942 75.168 347.942 L 69.893 420.147 L 106.067 417.007 L 112.095 339.31 L 87.026 275.966 L 91.548 268.903 L 129.229 316.779 L 142.794 399.97 L 178.968 395.261 L 159.373 273.612 L 136.474 226.725 L 38.794 218.675 Z" fill="#2f2e41" style=""/>
  <path d="M 181.982 84.468 L 151.837 81.328 L 126.968 106.443 C 126.968 106.443 114.91 142.545 117.171 162.167 C 119.431 181.788 139.026 230.447 139.026 230.447 L 169.925 206.901 L 205.344 208.471 L 205.344 134.997 L 187.258 93.886 L 181.982 84.468 Z" fill="#e6e6e6" style=""/>
  <path d="M 176.132 93.879 C 176.132 93.879 193.466 96.22 200.965 109.654 C 208.465 123.087 262.527 186.297 262.527 186.297 L 252.284 196.056 L 199.017 160.264 L 178.564 123.629 L 176.132 93.879 Z" fill="#e6e6e6" style=""/>
  <path d="M 136.389 222.206 C 136.389 222.206 133.75 254.777 150.33 259.486 C 166.909 264.194 209.865 260.27 209.865 260.27 L 236.996 187.281 L 263.373 220.244 L 288.995 207.686 C 288.995 207.686 261.866 128.419 246.793 128.419 C 231.721 128.419 207.605 150.395 207.605 150.395 L 168.416 205.332 L 136.389 222.206 Z" fill="#2f2e41" style=""/>
  <path d="M 353.053 323.842 C 353.053 323.842 347.024 322.272 347.024 327.766 C 347.024 333.259 348.532 349.741 348.532 349.741 C 348.532 349.741 417.864 337.183 417.864 329.335 C 417.864 321.487 399.024 323.057 399.024 323.057 L 371.893 309.715 L 353.053 323.842 Z" fill="#2f2e41" style=""/>
  <circle cx="589.948" cy="-26.199" r="18.54" fill="#2f2e41" style="" transform="matrix(0.753618, 0, 0, 0.784832, -409.342834, 44.770832)"/>
  <circle cx="632.762" cy="2.157" r="40.375" fill="#a0616a" style="" transform="matrix(0.753618, 0, 0, 0.784832, -409.342834, 44.770832)"/>
  <path d="M 57.872 81.204 C 54.637 82.987 45.538 76.437 42.281 67.661 C 40.187 62.015 35.095 62.954 31.846 55.913 C 29.951 51.809 35.607 47.796 34.673 44.249 C 32.984 37.82 35.102 32.071 35.372 31.366 C 37.703 25.285 41.136 25.427 43.906 18.348 C 45.572 14.087 44.503 13.587 45.905 11.406 C 49.95 5.115 61.686 4.875 69.963 7.85 C 72.827 8.881 79.726 3.363 85.328 7.36 C 91.925 12.069 96.317 25.643 95.305 28.13 C 94.692 29.642 91.275 28.102 84.171 29.265 C 77.592 30.342 86.275 35.46 78.873 37.205 C 70.118 39.268 67.48 37.386 65.055 40.269 C 62.49 43.319 62.016 49.489 64.356 53.152 C 65.517 54.97 67.014 55.611 66.827 56.877 C 66.485 59.186 64.514 57.931 63.868 60.381 C 63.117 63.231 69.352 66.968 68.81 67.83 C 68.701 68.003 68.235 68.192 62.146 65.747 C 59.714 64.772 58.777 63.929 58.505 64.241 C 58.063 64.746 55.877 69.806 58.361 71.958 C 62.226 75.307 59.547 76.637 61.309 79.261 C 63.127 81.967 59.927 80.07 57.872 81.204 Z" fill="#2f2e41" style=""/>
  <g transform="matrix(0.753618, 0, 0, 0.784832, -125.00222, -60.598976)" style="">
    <path id="uuid-ef7ff308-5d37-4b39-accd-1daffe73a539-485" d="M252.11357,413.95831c6.4435,10.42282,17.04436,15.54672,23.67683,11.44495,6.63248-4.10175,6.78427-15.87436,.3371-26.30002-2.51825-4.19995-6.00571-7.73578-10.17059-10.31161l-27.85902-43.81714-20.28343,13.51169,29.61751,41.76141c.44316,4.87854,2.04848,9.57996,4.68159,13.71069l.00002,.00003Z" fill="#a0616a"/>
    <path d="M215.34679,200.83791s-47,9-43,32,29.24852,116.72835,29.24852,116.72835l20.75148,23.27164,25-18-21-84-11-70v.00002Z" fill="#55befa"/>
  </g>
  <path id="uuid-2dd9dd70-5e89-4d14-82ab-9056802f8f8e-486" d="M 206.434 267.209 C 211.271 275.403 219.249 279.446 224.256 276.239 C 229.261 273.034 229.399 263.794 224.56 255.599 C 222.671 252.298 220.049 249.516 216.915 247.486 L 196.004 213.041 L 180.693 223.605 L 202.932 256.439 C 203.257 260.269 204.458 263.963 206.434 267.209 Z" fill="#ffb6b6" style=""/>
  <path d="M 159.381 101.736 L 129.553 109.525 C 129.553 109.525 139.998 148.285 142.445 162.179 C 144.893 176.073 196.4 252.628 196.4 252.628 L 211.98 233.219 L 166.359 145.66 L 159.381 101.736 Z" fill="#e6e6e6" style=""/>
</svg>