<?xml version="1.0" encoding="utf-8"?>
<svg width="660.04004" height="477.55556" viewBox="0 0 660.04004 477.55556" xmlns="http://www.w3.org/2000/svg">
  <g>
    <circle cx="216.7484" cy="34.0197" r="24.91179" fill="#ffb6b6"/>
    <path d="M229.94928,64.18796l-32.79055,9.36873-4.68436,10.53982-10.53982,50.35692v79.6342s-12.882,28.10619-5.85546,52.69911c7.51071,26.28749,33.96165-4.73969,53.8702-1.19875,19.90855,3.54094,51.52801,7.05421,51.52801,7.05421l-18.73746-85.48966-4.68436-104.22712-28.10619-18.73746Z" fill="#e6e6e6"/>
    <path d="M223.76134,42.17768l-5.06481-2.5324s-1.2662-11.39582-3.79861-13.92822-2.5324-3.79861-2.5324-3.79861l3.79861-5.06481s-18.99303,10.12962-22.79164,3.79861,1.2662-8.86341,1.2662-8.86341l-6.33101-5.06481s7.59721,5.06481,8.86341,1.2662,8.86341-6.37588,8.86341-6.37588c0,0,16.59024,3.75374,15.25923,0s3.7338,.04487,5,1.31107,12.66202,13.92822,13.92822,12.66202,7.59721,2.5324,6.33101,3.79861-1.2662,2.5324,0,3.79861,8.86341,15.19443,2.5324,20.25923-15.19443,11.39582-13.92822,16.46063,0-16.46063-11.39582-17.72683Z" fill="#2f2e41"/>
    <g>
      <path id="uuid-9ec032c4-1053-42c3-862e-530ead60710b-804" d="M100.95799,104.89896c-6.39397-5.51185-8.73284-13.27878-5.2244-17.34737,3.50845-4.06859,11.53448-2.89783,17.93,2.61684,2.58496,2.16784,4.61318,4.92321,5.91495,8.03559l26.79659,23.69607-11.3879,12.33783-25.20765-24.67002c-3.27122-.82947-6.29616-2.43045-8.82158-4.66895Z" fill="#ffb6b6"/>
      <path d="M192.75544,84.49934l17.65114-1.60465,15.47964,73.82595c2.9496,14.06732-6.27162,27.80125-20.40865,30.39628l-12.72213,2.33531L111.66907,118.05816l11.84671-19.74888,59.79747,37.51023,9.4422-51.32018Z" fill="#e6e6e6"/>
    </g>
    <g>
      <path d="M153.34876,412.8125s-14,26-13,25,18,5,18,5l10-26-15-4Z" fill="#ffb6b6"/>
      <path d="M132.68509,230.81684s-7.16655,28.64683-6.44358,27.43137,18.67696,.41363,18.67696,.41363l3.28972-27.66185-15.52309-.18316Z" fill="#ffb6b6"/>
      <path d="M257.34876,226c-31.63831,4.44458-60.21521,.56946-83.5-17.6875,0,0-17,57,14,63s65.5-4.3125,69.5-14.3125,0-31,0-31Z" fill="#2f2e41"/>
      <polygon points="198.34876 244 163.84876 325.3125 147.84876 419.3125 168.84876 424.3125 206.41175 337.8125 257.34876 255 198.34876 244" fill="#2f2e41"/>
      <path d="M193.84876,220.8125s-8-62-23-66c-7.31258-1.95002-14.14983-1.76109-19.23729-1.05526-5.12763,.7114-9.2153,4.62901-10.11188,9.72753l-13.63114,77.51524h19.27559l6.20472-21,16.5,28.8125,24-28Z" fill="#2f2e41"/>
      <path d="M144.84876,250.8125l-19.05906-2-2.94094,11s-31,28-15,30c16,2,31-9,31-9l22.00984-12.62598s-8.50984-22.68652-14.50984-22.68652-1.5,5.3125-1.5,5.3125Z" fill="#2f2e41"/>
      <path d="M154.84876,438.3125l-19.05906-2-2.94094,11s-31,28-15,30,31-9,31-9l22.00984-12.62598s-1.50984-23.68652-7.50984-23.68652c-6,0-8.5,6.3125-8.5,6.3125Z" fill="#2f2e41"/>
    </g>
    <g>
      <path id="uuid-0c2c35cf-ee7e-4b84-8f52-274d32364181-805" d="M251.35106,286.92829c-2.298,7.88141-8.22731,13.08423-13.24285,11.62094-5.01554-1.46328-7.21728-9.03767-4.91741-16.92158,.87551-3.1619,2.49549-6.06816,4.72445-8.47561l10.15843-33.27088,15.51144,5.09985-11.66124,32.25775c.58564,3.22925,.38922,6.55181-.57282,9.68953Z" fill="#ffb6b6"/>
      <path d="M262.08753,83.07027l-8.08811-2.28114v.00002c-7.62668,15.17437-10.90619,32.16302-9.47558,49.08582l3.99188,47.2203-13.17149,82.99774,25.81615,6.67893,20.34392-104.15843-19.41677-79.54323Z" fill="#e6e6e6"/>
    </g>
  </g>
  <path d="M 346.847 10.74 C 346.847 10.74 356.384 16.333 353.256 21.864 C 350.129 27.395 345.768 34.929 348.727 37.302 C 351.685 39.674 356.568 50.136 356.568 50.136 C 356.568 50.136 377.414 47.224 375.457 63.417 C 373.5 79.609 363.707 81.817 372.101 88.94 C 380.494 96.064 363.377 104.583 363.377 104.583 C 363.377 104.583 351.56 100.901 348.864 89.577 C 346.168 78.253 351.267 98.236 349.557 99.668 C 347.847 101.101 341.207 110.545 336.508 97.989 C 331.809 85.432 336.462 80.564 330.253 73.153 C 324.044 65.742 319.823 53.755 320.008 51.66 C 320.193 49.565 312.906 30.445 324.122 22.988 C 335.338 15.532 346.847 10.74 346.847 10.74 L 346.847 10.74 Z" fill="#2f2e41"/>
  <g transform="matrix(1, 0, 0, 1, -99.885643, -27.803221)">
    <path id="uuid-40eda929-ef4c-4923-ad7d-cda70967e632-806" d="M540.66959,214.23301c5.53698,4.58251,12.38962,5.44008,15.30538,1.91583,2.91576-3.52425,.79041-10.09475-4.74915-14.67816-2.18772-1.86124-4.78935-3.17149-7.58725-3.82113l-23.70562-19.12002-8.73535,11.3156,24.29696,17.6476c1.16196,2.62782,2.93649,4.93908,5.17504,6.74028Z" fill="#ffb6b6"/>
    <path d="M469.62212,109.95774s-18.60329-12.44127-24.69534-6.34072c-6.09205,6.10055-4.63711,21.33801-4.63711,21.33801l48.78561,56.85605,38.68463,24.58959,10.37307-16.24274-32.5228-29.0209-35.98806-51.17928Z" fill="#3f3d56"/>
  </g>
  <polygon points="342.467 55.205 349.217 79.197 312.17 79.197 324.369 49.635 342.467 55.205" fill="#ffb6b6"/>
  <polygon points="342.467 55.205 349.217 79.197 312.17 79.197 324.369 49.635 342.467 55.205" opacity=".1"/>
  <g transform="matrix(1, 0, 0, 1, -99.885643, -27.803221)">
    <path id="uuid-c7296f43-523d-4c33-91d5-0d02a2c7186e-807" d="M361.56011,260.14928c-.47825,7.17139,2.83434,13.23116,7.39831,13.53477s8.65017-5.2634,9.12763-12.43741c.23003-2.86311-.22893-5.73967-1.33852-8.38903l1.64263-30.41108-14.28746-.46665-.10246,30.02948c-1.45178,2.4795-2.28851,5.27069-2.44012,8.13992Z" fill="#ffb6b6"/>
    <path d="M404.58148,141.53126s-.79011-22.36612-9.30155-23.73912-20.01953,8.71962-20.01953,8.71962l-17.58081,72.82555,2.68236,45.75973,19.24177-1.08692,4.51599-43.35379,20.46177-59.12508Z" fill="#3f3d56"/>
  </g>
  <path d="M 387.217 381.009 C 387.217 381.009 401.217 407.009 400.217 406.009 C 399.217 405.009 382.217 411.009 382.217 411.009 L 372.217 385.009 L 387.217 381.009 Z" fill="#ffb6b6"/>
  <path d="M 407.881 199.014 C 407.881 199.014 415.047 227.66 414.324 226.445 C 413.601 225.23 395.647 226.859 395.647 226.859 L 392.358 199.197 L 407.881 199.014 L 407.881 199.014 Z" fill="#ffb6b6"/>
  <path d="M 352.217 71.197 L 317.264 71.197 L 279.217 97.197 L 268.217 188.197 L 274.217 206.197 L 285.217 227.197 C 285.217 227.197 274.217 181.197 301.217 199.197 C 328.217 217.197 330.217 220.197 330.217 220.197 L 366.217 202.197 L 379.717 127.697 L 369.717 86.697 L 352.217 71.197 Z" fill="#3f3d56"/>
  <path d="M 283.217 194.197 C 314.855 198.641 343.432 194.766 366.717 176.509 C 366.717 176.509 383.717 233.509 352.717 239.509 C 321.717 245.509 287.217 235.197 283.217 225.197 C 279.217 215.197 283.217 194.197 283.217 194.197 Z" fill="#2f2e41"/>
  <polygon points="342.217 212.197 376.717 293.509 392.717 387.509 371.717 392.509 334.154 306.009 283.217 223.197 342.217 212.197" fill="#2f2e41"/>
  <path d="M 346.717 189.009 C 346.717 189.009 354.717 127.009 369.717 123.009 C 377.03 121.059 383.867 121.248 388.954 121.954 C 394.082 122.665 398.17 126.583 399.066 131.682 L 412.697 209.197 L 393.422 209.197 L 387.217 188.197 L 370.717 217.009 L 346.717 189.009 L 346.717 189.009 Z" fill="#2f2e41"/>
  <path d="M 395.717 219.009 L 414.776 217.009 L 417.717 228.009 C 417.717 228.009 448.717 256.009 432.717 258.009 C 416.717 260.009 401.717 249.009 401.717 249.009 L 379.707 236.383 C 379.707 236.383 388.217 213.697 394.217 213.697 C 400.217 213.697 395.717 219.009 395.717 219.009 L 395.717 219.009 Z" fill="#2f2e41"/>
  <path d="M 385.717 406.509 L 404.776 404.509 L 407.717 415.509 C 407.717 415.509 438.717 443.509 422.717 445.509 C 406.717 447.509 391.717 436.509 391.717 436.509 L 369.707 423.883 C 369.707 423.883 371.217 400.197 377.217 400.197 C 383.217 400.197 385.717 406.509 385.717 406.509 Z" fill="#2f2e41"/>
  <circle cx="333.665" cy="38.108" r="22.311" fill="#ffb6b6"/>
  <path d="M 342.218 13.194 C 342.218 13.194 345.936 23.606 339.987 25.837 C 334.037 28.068 325.857 31.043 326.6 34.761 C 327.344 38.48 324.369 49.635 324.369 49.635 C 324.369 49.635 342.218 60.79 330.319 71.945 C 318.42 83.101 309.495 78.504 311.355 89.355 C 313.214 100.206 294.622 95.743 294.622 95.743 C 294.622 95.743 287.928 85.332 293.134 74.92 C 298.34 64.509 289.416 83.101 287.185 83.101 C 284.954 83.101 273.798 86.076 278.261 73.433 C 282.723 60.79 289.416 60.046 289.416 50.379 C 289.416 40.711 293.878 28.812 295.365 27.324 C 296.853 25.837 303.546 6.501 316.932 7.988 C 330.319 9.476 342.218 13.194 342.218 13.194 L 342.218 13.194 Z" fill="#2f2e41"/>
  <path d="M 453.677 224.866 C 453.596 224.5 453.866 224.149 454.241 224.133 L 454.859 222.08 L 455.573 222.935 L 454.877 224.754 C 454.865 225.22 454.353 225.5 453.955 225.257 C 453.813 225.17 453.712 225.029 453.677 224.866 Z" fill="#ffb6b6" style="" transform="matrix(0, 1, -1, 0, 678.331017, -230.904549)"/>
  <path d="M 464.021 184.981 C 465.224 184.414 466.169 183.414 466.668 182.181 C 466.717 182.06 466.904 182.142 466.855 182.264 C 466.333 183.546 465.348 184.585 464.095 185.172 C 463.975 185.228 463.902 185.037 464.021 184.981 Z" fill="#fff" style="" transform="matrix(0, 1, -1, 0, 649.063599, -281.759888)"/>
  <path d="M 468.654 217.114 C 469.857 216.547 470.802 215.547 471.3 214.314 C 471.35 214.192 471.537 214.275 471.488 214.397 C 470.966 215.679 469.981 216.718 468.728 217.305 C 468.608 217.361 468.535 217.17 468.654 217.114 Z" fill="#fff" style="" transform="matrix(0, 1, -1, 0, 685.829369, -254.260109)"/>
  <path d="M 428.821 212.511 L 429.527 213.057 L 432.271 213.534 L 435.322 205.95 C 435.322 205.95 437.19 200.106 442.421 201.302 L 459.235 201.003 C 459.235 201.003 464.397 200.474 465.251 202.908 C 465.412 203.369 469.772 213.557 469.772 213.557 L 472.828 213.126 L 472.462 204.44 L 465.202 187.589 L 452.584 186.801 L 439.582 187.701 L 428.821 212.511 Z" fill="#3f3d56" style="" transform="matrix(0, 1, -1, 0, 651.00351, -250.645508)"/>
  <circle cx="559.269" cy="206.879" r="4.857" fill="#2f2e41" style="" transform="matrix(0, 1, -1, 0, 660.914551, -367.119141)"/>
  <circle cx="575.56" cy="206.879" r="4.857" fill="#2f2e41" style="" transform="matrix(0, 1, -1, 0, 660.914551, -367.119141)"/>
  <path d="M 456.277 199.37 L 458.277 198.977 C 458.277 198.977 473.335 196.829 482.852 199.37 L 482.132 201.387 L 456.949 201.238 L 456.277 199.37 Z" fill="#e6e6e6" style="" transform="matrix(0, 1, -1, 0, 669.322456, -269.806541)"/>
  <path d="M 471.74 206.104 L 458.961 206.104 C 457.41 206.104 456.069 205.03 455.773 203.549 L 454.374 196.555 C 454.312 196.246 454.382 195.925 454.568 195.671 C 454.762 195.404 455.058 195.23 455.386 195.19 C 462.126 194.354 468.8 194.352 475.222 195.186 C 475.545 195.226 475.837 195.398 476.029 195.661 C 476.213 195.911 476.286 196.227 476.228 196.533 L 474.937 203.506 C 474.659 205.011 473.314 206.104 471.74 206.104 Z" fill="#55befa" style="" transform="matrix(0, 1, -1, 0, 665.632607, -264.96685)"/>
  <path d="M 466.73 185.816 L 466.786 184.815 C 466.803 184.499 466.975 184.211 467.245 184.045 C 468.052 183.55 470.229 182.46 473.006 183.032 C 473.406 183.114 473.711 183.438 473.769 183.842 L 473.844 184.363 L 466.73 185.816 Z" fill="#3f3d56" style="" transform="matrix(0, 1, -1, 0, 654.630089, -285.943916)"/>
  <path d="M 473.845 217.87 L 466.731 216.417 L 466.851 215.58 C 466.879 215.378 467.027 215.214 467.225 215.164 C 470.429 214.36 472.88 215.788 473.556 216.244 C 473.685 216.333 473.767 216.476 473.776 216.633 L 473.845 217.87 Z" fill="#3f3d56" style="" transform="matrix(0, 1, -1, 0, 686.684525, -253.891464)"/>
  <path d="M 450.083 199.033 C 449.911 199.035 449.743 198.987 449.597 198.896 C 447.693 197.784 446.505 195.746 446.071 192.84 C 445.712 190.439 445.861 187.427 446.516 183.885 C 447.677 177.606 450.109 171.329 451.101 168.922 C 451.367 168.278 451.924 167.799 452.6 167.631 C 454.645 167.128 458.214 166.284 459.147 166.284 C 460.424 166.284 461.115 167.487 461.122 167.499 L 461.126 167.509 L 462.248 172.374 L 462.248 172.444 C 462.867 174.538 462.407 176.051 461.912 176.951 C 461.374 177.928 460.679 178.416 460.672 178.421 C 459.58 179.252 457.802 181.93 456.031 185.408 C 454.192 189.023 452.828 192.589 452.383 194.949 C 451.839 197.837 451.041 198.722 450.468 198.955 C 450.346 199.005 450.215 199.032 450.083 199.033 Z" fill="#e6e6e6" style="" transform="matrix(0, 1, -1, 0, 636.871986, -271.554924)"/>
  <path d="M 471.826 205.88 L 459.752 205.88 C 458.282 205.878 457.019 204.837 456.737 203.394 L 455.415 196.592 C 455.291 195.956 455.73 195.347 456.373 195.264 C 462.741 194.45 469.048 194.449 475.117 195.26 C 475.749 195.346 476.182 195.942 476.069 196.57 L 474.849 203.353 C 474.586 204.816 473.313 205.881 471.826 205.88 Z" fill="#e6e6e6" style="" transform="matrix(0, 1, -1, 0, 666.00679, -265.474167)"/>
  <path d="M 458.345 234.456 C 458.212 234.455 458.081 234.429 457.959 234.378 C 457.386 234.145 456.588 233.26 456.044 230.372 C 455.599 228.012 454.236 224.446 452.396 220.831 C 450.626 217.353 448.847 214.675 447.754 213.843 C 447.748 213.839 447.053 213.351 446.515 212.374 C 446.02 211.474 445.56 209.961 446.179 207.867 L 446.18 207.788 L 447.302 202.927 L 447.305 202.922 C 447.312 202.91 448.003 201.707 449.281 201.707 C 450.212 201.707 453.782 202.551 455.827 203.054 C 456.503 203.222 457.06 203.701 457.327 204.345 C 458.318 206.752 460.751 213.029 461.911 219.308 C 462.565 222.85 462.715 225.862 462.356 228.263 C 461.922 231.169 460.734 233.207 458.827 234.321 C 458.683 234.411 458.515 234.458 458.345 234.456 Z" fill="#e6e6e6" style="" transform="matrix(0, 1, -1, 0, 672.294952, -236.131897)"/>
  <circle cx="559.269" cy="206.056" r="2.914" fill="#3f3d56" style="" transform="matrix(0, 1, -1, 0, 660.914551, -367.119141)"/>
  <circle cx="559.269" cy="206.056" r="1.943" fill="#2f2e41" style="" transform="matrix(0, 1, -1, 0, 660.914551, -367.119141)"/>
  <circle cx="575.56" cy="206.056" r="2.914" fill="#3f3d56" style="" transform="matrix(0, 1, -1, 0, 660.914551, -367.119141)"/>
  <circle cx="575.56" cy="206.056" r="1.943" fill="#2f2e41" style="" transform="matrix(0, 1, -1, 0, 660.914551, -367.119141)"/>
  <circle cx="565.621" cy="202.32" r="0.224" fill="#2f2e41" style="" transform="matrix(0, 1, -1, 0, 660.914551, -367.119141)"/>
  <circle cx="566.592" cy="202.32" r="0.224" fill="#2f2e41" style="" transform="matrix(0, 1, -1, 0, 660.914551, -367.119141)"/>
  <circle cx="566.144" cy="203.142" r="0.224" fill="#2f2e41" style="" transform="matrix(0, 1, -1, 0, 660.914551, -367.119141)"/>
  <circle cx="567.041" cy="203.142" r="0.224" fill="#2f2e41" style="" transform="matrix(0, 1, -1, 0, 660.914551, -367.119141)"/>
  <circle cx="567.938" cy="203.142" r="0.224" fill="#2f2e41" style="" transform="matrix(0, 1, -1, 0, 660.914551, -367.119141)"/>
  <circle cx="568.834" cy="203.142" r="0.224" fill="#2f2e41" style="" transform="matrix(0, 1, -1, 0, 660.914551, -367.119141)"/>
  <circle cx="567.564" cy="202.32" r="0.224" fill="#2f2e41" style="" transform="matrix(0, 1, -1, 0, 660.914551, -367.119141)"/>
  <circle cx="568.535" cy="202.32" r="0.224" fill="#2f2e41" style="" transform="matrix(0, 1, -1, 0, 660.914551, -367.119141)"/>
  <circle cx="569.507" cy="202.32" r="0.224" fill="#2f2e41" style="" transform="matrix(0, 1, -1, 0, 660.914551, -367.119141)"/>
  <path d="M 452.989 200.706 L 451.047 200.706 C 450.788 200.706 450.626 200.426 450.755 200.202 C 450.815 200.098 450.926 200.034 451.047 200.034 L 452.989 200.034 C 453.248 200.034 453.41 200.314 453.281 200.538 C 453.221 200.642 453.11 200.706 452.989 200.706 Z" fill="#2f2e41" style="" transform="matrix(0, 1, -1, 0, 652.388, -251.64801)"/>
  <path d="M 467.638 189.518 C 467.379 189.517 467.156 189.339 467.096 189.088 L 466.798 187.823 C 466.701 187.405 467.091 187.038 467.502 187.162 C 467.692 187.22 467.837 187.374 467.883 187.567 L 468.181 188.833 C 468.263 189.183 467.997 189.518 467.638 189.518 Z" fill="#3f3d56" style="" transform="matrix(0, 1, -1, 0, 655.817261, -279.161713)"/>
  <path d="M 467.417 213.675 C 467.058 213.675 466.792 213.34 466.873 212.99 L 467.172 211.725 C 467.27 211.307 467.784 211.153 468.096 211.448 C 468.241 211.584 468.302 211.787 468.256 211.98 L 467.958 213.245 C 467.899 213.496 467.675 213.674 467.417 213.675 Z" fill="#3f3d56" style="" transform="matrix(0, 1, -1, 0, 680.049881, -255.079575)"/>
  <path d="M 464.433 186.185 C 464.25 186.185 464.071 186.129 463.921 186.024 L 463.296 185.586 C 463.057 185.419 462.915 185.145 462.915 184.854 L 462.915 183.513 C 462.915 182.952 463.369 182.498 463.93 182.498 L 464.888 182.498 C 465.448 182.498 465.903 182.952 465.904 183.513 L 465.904 184.867 C 465.903 185.151 465.768 185.418 465.54 185.587 L 464.963 186.011 C 464.81 186.124 464.624 186.185 464.433 186.185 Z" fill="#3f3d56" style="" transform="matrix(0, 1, -1, 0, 648.750999, -280.068001)"/>
  <path d="M 459.983 186.185 L 459.025 186.185 C 458.464 186.184 458.01 185.73 458.01 185.17 L 458.01 183.829 C 458.01 183.537 458.152 183.264 458.391 183.096 L 459.016 182.659 C 459.33 182.439 459.75 182.444 460.058 182.672 L 460.635 183.096 C 460.863 183.265 460.998 183.532 460.999 183.816 L 460.999 185.17 C 460.998 185.73 460.543 186.184 459.983 186.185 Z" fill="#3f3d56" style="" transform="matrix(0, 1, -1, 0, 643.845718, -275.163284)"/>
  <path d="M 462.785 188.475 L 461.444 188.475 C 461.153 188.475 460.879 188.332 460.712 188.093 L 460.274 187.468 C 460.054 187.154 460.059 186.734 460.287 186.426 L 460.711 185.849 C 460.88 185.621 461.147 185.486 461.431 185.486 L 462.785 185.486 C 463.346 185.486 463.8 185.941 463.801 186.501 L 463.801 187.459 C 463.8 188.02 463.346 188.474 462.785 188.475 Z" fill="#3f3d56" style="" transform="matrix(0, 1, -1, 0, 648.93721, -274.976212)"/>
  <path d="M 462.469 183.121 L 461.128 183.121 C 460.567 183.12 460.113 182.666 460.113 182.105 L 460.113 181.147 C 460.113 180.587 460.567 180.132 461.128 180.132 L 462.482 180.132 C 462.766 180.132 463.033 180.267 463.202 180.495 L 463.626 181.072 C 463.854 181.38 463.859 181.8 463.639 182.114 L 463.201 182.739 C 463.034 182.978 462.761 183.121 462.469 183.121 Z" fill="#3f3d56" style="" transform="matrix(0, 1, -1, 0, 643.58329, -280.330284)"/>
  <circle cx="583.555" cy="195.146" r="1.719" fill="#3f3d56" style="" transform="matrix(0, 1, -1, 0, 660.914551, -367.119141)"/>
  <circle cx="587.367" cy="199.107" r="1.719" fill="#3f3d56" style="" transform="matrix(0, 1, -1, 0, 660.914551, -367.119141)"/>
  <circle cx="583.555" cy="202.843" r="1.719" fill="#3f3d56" style="" transform="matrix(0, 1, -1, 0, 660.914551, -367.119141)"/>
  <circle cx="579.744" cy="199.032" r="1.719" fill="#3f3d56" style="" transform="matrix(0, 1, -1, 0, 660.914551, -367.119141)"/>
  <path d="M 461.808 221.367 C 460.946 221.367 460.406 220.433 460.838 219.685 C 461.269 218.938 462.348 218.938 462.779 219.685 C 462.877 219.856 462.929 220.049 462.929 220.246 C 462.929 220.865 462.427 221.366 461.808 221.367 Z M 461.808 219.274 C 461.061 219.274 460.593 220.084 460.967 220.731 C 461.341 221.379 462.276 221.379 462.65 220.731 C 462.735 220.584 462.78 220.416 462.78 220.246 C 462.779 219.71 462.345 219.275 461.808 219.274 Z" fill="#e6e6e6" style="" transform="matrix(0, 1, -1, 0, 682.053345, -241.561584)"/>
  <path d="M 467.043 217.494 L 464.791 217.462 L 465.945 215.528 L 467.043 217.494 Z M 465.052 217.316 L 466.787 217.341 L 465.941 215.826 L 465.052 217.316 Z" fill="#e6e6e6" style="" transform="matrix(0, 1, -1, 0, 682.427994, -249.405991)"/>
  <path d="M 462.779 213.522 L 460.986 213.522 L 460.986 211.728 L 462.779 211.728 L 462.779 213.522 Z M 461.135 213.372 L 462.63 213.372 L 462.63 211.878 L 461.135 211.878 L 461.135 213.372 Z" fill="#e6e6e6" style="" transform="matrix(0, 1, -1, 0, 674.507492, -249.257492)"/>
  <polygon points="458.999 217.208 458.177 216.388 458.902 215.665 458.796 215.559 458.072 216.282 457.347 215.559 457.241 215.665 457.966 216.388 457.144 217.208 457.249 217.313 458.072 216.493 458.893 217.313 458.999 217.208" fill="#e6e6e6" style="" transform="matrix(0, 1, -1, 0, 674.507507, -241.635498)"/>
  <circle cx="167.727" cy="213.851" r="4.857" fill="#2f2e41" style=""/>
  <circle cx="184.018" cy="213.851" r="4.857" fill="#2f2e41" style=""/>
  <circle cx="174.079" cy="209.293" r="0.224" fill="#2f2e41" style=""/>
  <circle cx="175.05" cy="209.293" r="0.224" fill="#2f2e41" style=""/>
  <circle cx="174.602" cy="210.114" r="0.224" fill="#2f2e41" style=""/>
  <circle cx="175.499" cy="210.114" r="0.224" fill="#2f2e41" style=""/>
  <circle cx="176.396" cy="210.114" r="0.224" fill="#2f2e41" style=""/>
  <circle cx="177.292" cy="210.114" r="0.224" fill="#2f2e41" style=""/>
  <circle cx="176.022" cy="209.293" r="0.224" fill="#2f2e41" style=""/>
  <circle cx="176.993" cy="209.293" r="0.224" fill="#2f2e41" style=""/>
  <circle cx="177.965" cy="209.293" r="0.224" fill="#2f2e41" style=""/>
  <path d="M 176.917 216.205 L 174.975 216.205 C 174.716 216.205 174.554 215.925 174.683 215.701 C 174.743 215.597 174.854 215.533 174.975 215.533 L 176.917 215.533 C 177.176 215.533 177.338 215.813 177.209 216.037 C 177.149 216.141 177.038 216.205 176.917 216.205 Z" fill="#2f2e41" style=""/>
  <path d="M 106.075 100.296 C 105.99 99.916 106.271 99.551 106.661 99.535 L 107.301 97.404 L 108.043 98.291 L 107.32 100.179 C 107.308 100.664 106.776 100.954 106.362 100.702 C 106.215 100.611 106.111 100.465 106.075 100.296 Z" fill="#ffb6b6" style="" transform="matrix(0, 1, -1, 0, 206.150787, -7.951973)"/>
  <path d="M 116.816 58.882 C 118.065 58.293 119.046 57.255 119.564 55.974 C 119.615 55.848 119.809 55.934 119.758 56.06 C 119.217 57.392 118.194 58.47 116.892 59.079 C 116.769 59.139 116.693 58.939 116.816 58.882 Z" fill="#fff" style="" transform="matrix(0, 1, -1, 0, 175.761118, -60.758787)"/>
  <path d="M 121.625 92.247 C 122.875 91.658 123.856 90.621 124.374 89.34 C 124.426 89.213 124.62 89.299 124.569 89.426 C 124.027 90.757 123.003 91.835 121.703 92.445 C 121.578 92.503 121.503 92.304 121.625 92.247 Z" fill="#fff" style="" transform="matrix(0, 1, -1, 0, 213.936733, -32.203701)"/>
  <path d="M 80.265 87.468 L 80.998 88.035 L 83.848 88.53 L 87.016 80.656 C 87.016 80.656 88.955 74.587 94.388 75.829 L 111.845 75.518 C 111.845 75.518 117.206 74.969 118.092 77.497 C 118.259 77.976 122.786 88.554 122.786 88.554 L 125.96 88.106 L 125.579 79.088 L 118.041 61.59 L 104.94 60.772 L 91.439 61.707 L 80.265 87.468 Z" fill="#3f3d56" style="" transform="matrix(0, 1, -1, 0, 177.775499, -28.449499)"/>
  <circle cx="77.606" cy="86.396" r="5.043" fill="#2f2e41" style="" transform="matrix(0, 1, -1, 0, 192.843567, -11.279634)"/>
  <circle cx="94.52" cy="86.396" r="5.043" fill="#2f2e41" style="" transform="matrix(0, 1, -1, 0, 192.843567, -11.279634)"/>
  <path d="M 108.774 73.822 L 110.851 73.415 C 110.851 73.415 126.486 71.184 136.369 73.822 L 135.621 75.917 L 109.472 75.762 L 108.774 73.822 Z" fill="#e6e6e6" style="" transform="matrix(0, 1, -1, 0, 196.796936, -48.346069)"/>
  <path d="M 124.83 80.815 L 111.561 80.815 C 109.949 80.815 108.558 79.7 108.25 78.163 L 106.798 70.899 C 106.734 70.579 106.807 70.246 106.999 69.982 C 107.201 69.705 107.509 69.524 107.848 69.483 C 114.847 68.614 121.777 68.613 128.446 69.479 C 128.781 69.519 129.084 69.699 129.283 69.971 C 129.475 70.232 129.55 70.559 129.491 70.877 L 128.15 78.118 C 127.861 79.681 126.464 80.815 124.83 80.815 Z" fill="#55befa" style="" transform="matrix(0, 1, -1, 0, 192.965691, -43.320313)"/>
  <path d="M 119.628 59.749 L 119.687 58.709 C 119.704 58.381 119.882 58.082 120.163 57.91 C 121.002 57.395 123.261 56.264 126.145 56.857 C 126.56 56.943 126.877 57.279 126.937 57.699 L 127.015 58.239 L 119.628 59.749 Z" fill="#3f3d56" style="" transform="matrix(0, 1, -1, 0, 181.540676, -65.102322)"/>
  <path d="M 127.015 93.033 L 119.629 91.523 L 119.753 90.654 C 119.782 90.445 119.936 90.274 120.141 90.222 C 123.468 89.388 126.013 90.87 126.715 91.344 C 126.85 91.436 126.934 91.584 126.943 91.748 L 127.015 93.033 Z" fill="#3f3d56" style="" transform="matrix(0, 1, -1, 0, 214.824585, -31.819412)"/>
  <path d="M 102.343 73.472 C 102.164 73.474 101.99 73.424 101.838 73.33 C 99.861 72.175 98.628 70.058 98.177 67.041 C 97.804 64.549 97.959 61.421 98.639 57.743 C 99.844 51.223 102.369 44.706 103.399 42.206 C 103.676 41.538 104.254 41.04 104.957 40.865 C 107.079 40.344 110.786 39.468 111.753 39.468 C 113.081 39.468 113.798 40.717 113.806 40.729 L 113.809 40.739 L 114.974 45.791 L 114.974 45.864 C 115.617 48.038 115.139 49.608 114.625 50.543 C 114.067 51.558 113.346 52.064 113.338 52.07 C 112.204 52.932 110.357 55.713 108.519 59.325 C 106.608 63.077 105.193 66.782 104.731 69.232 C 104.167 72.231 103.338 73.149 102.743 73.391 C 102.616 73.443 102.48 73.471 102.343 73.472 Z" fill="#e6e6e6" style="" transform="matrix(0, 1, -1, 0, 163.101538, -50.161478)"/>
  <path d="M 124.92 80.582 L 112.383 80.582 C 110.856 80.58 109.545 79.498 109.252 78 L 107.879 70.937 C 107.751 70.277 108.207 69.644 108.874 69.558 C 115.487 68.713 122.035 68.712 128.337 69.554 C 128.993 69.643 129.443 70.262 129.325 70.915 L 128.059 77.957 C 127.786 79.477 126.464 80.583 124.92 80.582 Z" fill="#e6e6e6" style="" transform="matrix(0, 1, -1, 0, 193.35331, -43.847939)"/>
  <path d="M 110.921 110.254 C 110.785 110.253 110.648 110.225 110.521 110.173 C 109.926 109.931 109.097 109.013 108.532 106.014 C 108.071 103.564 106.654 99.859 104.745 96.107 C 102.907 92.495 101.059 89.714 99.925 88.851 C 99.918 88.846 99.197 88.34 98.639 87.325 C 98.125 86.39 97.647 84.82 98.29 82.646 L 98.291 82.563 L 99.456 77.515 L 99.458 77.511 C 99.466 77.499 100.183 76.25 101.509 76.25 C 102.477 76.25 106.183 77.126 108.307 77.647 C 109.01 77.822 109.588 78.32 109.865 78.988 C 110.894 81.488 113.419 88.005 114.625 94.525 C 115.304 98.203 115.46 101.331 115.087 103.823 C 114.636 106.84 113.403 108.957 111.422 110.113 C 111.272 110.207 111.099 110.256 110.921 110.254 Z" fill="#e6e6e6" style="" transform="matrix(0, 1, -1, 0, 199.884399, -13.380341)"/>
  <circle cx="77.606" cy="85.543" r="3.026" fill="#3f3d56" style="" transform="matrix(0, 1, -1, 0, 192.843567, -11.279634)"/>
  <circle cx="77.606" cy="85.543" r="2.018" fill="#2f2e41" style="" transform="matrix(0, 1, -1, 0, 192.843567, -11.279634)"/>
  <circle cx="94.52" cy="85.543" r="3.026" fill="#3f3d56" style="" transform="matrix(0, 1, -1, 0, 192.843567, -11.279634)"/>
  <circle cx="94.52" cy="85.543" r="2.018" fill="#2f2e41" style="" transform="matrix(0, 1, -1, 0, 192.843567, -11.279634)"/>
  <circle cx="84.201" cy="81.663" r="0.233" fill="#2f2e41" style="" transform="matrix(0, 1, -1, 0, 192.843567, -11.279634)"/>
  <circle cx="85.209" cy="81.663" r="0.233" fill="#2f2e41" style="" transform="matrix(0, 1, -1, 0, 192.843567, -11.279634)"/>
  <circle cx="84.744" cy="82.516" r="0.233" fill="#2f2e41" style="" transform="matrix(0, 1, -1, 0, 192.843567, -11.279634)"/>
  <circle cx="85.675" cy="82.516" r="0.233" fill="#2f2e41" style="" transform="matrix(0, 1, -1, 0, 192.843567, -11.279634)"/>
  <circle cx="86.606" cy="82.516" r="0.233" fill="#2f2e41" style="" transform="matrix(0, 1, -1, 0, 192.843567, -11.279634)"/>
  <circle cx="87.537" cy="82.516" r="0.233" fill="#2f2e41" style="" transform="matrix(0, 1, -1, 0, 192.843567, -11.279634)"/>
  <circle cx="86.218" cy="81.663" r="0.233" fill="#2f2e41" style="" transform="matrix(0, 1, -1, 0, 192.843567, -11.279634)"/>
  <circle cx="87.227" cy="81.663" r="0.233" fill="#2f2e41" style="" transform="matrix(0, 1, -1, 0, 192.843567, -11.279634)"/>
  <circle cx="88.235" cy="81.663" r="0.233" fill="#2f2e41" style="" transform="matrix(0, 1, -1, 0, 192.843567, -11.279634)"/>
  <path d="M 105.361 75.21 L 103.343 75.21 C 103.075 75.21 102.907 74.919 103.041 74.685 C 103.103 74.578 103.219 74.511 103.343 74.511 L 105.361 74.511 C 105.63 74.511 105.798 74.802 105.663 75.035 C 105.602 75.143 105.486 75.21 105.361 75.21 Z" fill="#2f2e41" style="" transform="matrix(0, 1, -1, 0, 179.212776, -29.491776)"/>
  <path d="M 120.57 63.593 C 120.302 63.592 120.07 63.408 120.008 63.147 L 119.699 61.833 C 119.597 61.4 120.002 61.019 120.429 61.148 C 120.627 61.207 120.777 61.368 120.824 61.568 L 121.135 62.882 C 121.22 63.245 120.943 63.593 120.57 63.593 Z" fill="#3f3d56" style="" transform="matrix(0, 1, -1, 0, 182.774508, -58.058996)"/>
  <path d="M 120.341 88.677 C 119.968 88.677 119.692 88.329 119.777 87.966 L 120.086 86.651 C 120.189 86.218 120.723 86.059 121.047 86.364 C 121.196 86.506 121.26 86.716 121.213 86.917 L 120.904 88.231 C 120.842 88.491 120.609 88.676 120.341 88.677 Z" fill="#3f3d56" style="" transform="matrix(0, 1, -1, 0, 207.936405, -33.053303)"/>
  <path d="M 117.245 60.132 C 117.055 60.132 116.869 60.074 116.713 59.964 L 116.064 59.51 C 115.816 59.336 115.668 59.052 115.668 58.75 L 115.668 57.357 C 115.668 56.775 116.14 56.303 116.722 56.302 L 117.717 56.302 C 118.299 56.303 118.77 56.775 118.771 57.357 L 118.771 58.764 C 118.77 59.058 118.631 59.335 118.394 59.511 L 117.795 59.951 C 117.636 60.069 117.443 60.132 117.245 60.132 Z" fill="#3f3d56" style="" transform="matrix(0, 1, -1, 0, 175.436501, -59.002502)"/>
  <path d="M 112.623 60.131 L 111.628 60.131 C 111.046 60.13 110.574 59.659 110.574 59.077 L 110.574 57.684 C 110.574 57.381 110.722 57.098 110.97 56.924 L 111.619 56.469 C 111.945 56.241 112.381 56.246 112.701 56.483 L 113.3 56.923 C 113.537 57.099 113.676 57.376 113.677 57.67 L 113.677 59.077 C 113.676 59.659 113.205 60.13 112.623 60.131 Z" fill="#3f3d56" style="" transform="matrix(0, 1, -1, 0, 170.341776, -53.909224)"/>
  <path d="M 115.533 62.51 L 114.141 62.51 C 113.838 62.51 113.554 62.361 113.38 62.113 L 112.926 61.464 C 112.697 61.138 112.702 60.702 112.939 60.382 L 113.38 59.783 C 113.555 59.546 113.833 59.406 114.127 59.406 L 115.533 59.406 C 116.115 59.406 116.587 59.878 116.587 60.46 L 116.587 61.455 C 116.587 62.037 116.115 62.509 115.533 62.51 Z" fill="#3f3d56" style="" transform="matrix(0, 1, -1, 0, 175.630339, -53.714342)"/>
  <path d="M 115.203 56.951 L 113.811 56.951 C 113.229 56.95 112.758 56.478 112.757 55.896 L 112.757 54.901 C 112.758 54.319 113.229 53.847 113.811 53.847 L 115.217 53.847 C 115.512 53.847 115.789 53.987 115.964 54.224 L 116.405 54.823 C 116.641 55.143 116.647 55.579 116.419 55.905 L 115.963 56.554 C 115.79 56.802 115.506 56.951 115.203 56.951 Z" fill="#3f3d56" style="" transform="matrix(0, 1, -1, 0, 170.070543, -59.272543)"/>
  <circle cx="102.823" cy="74.215" r="1.784" fill="#3f3d56" style="" transform="matrix(0, 1, -1, 0, 192.843567, -11.279634)"/>
  <circle cx="106.78" cy="78.326" r="1.784" fill="#3f3d56" style="" transform="matrix(0, 1, -1, 0, 192.843567, -11.279634)"/>
  <circle cx="102.823" cy="82.206" r="1.784" fill="#3f3d56" style="" transform="matrix(0, 1, -1, 0, 192.843567, -11.279634)"/>
  <circle cx="98.865" cy="78.249" r="1.784" fill="#3f3d56" style="" transform="matrix(0, 1, -1, 0, 192.843567, -11.279634)"/>
  <path d="M 114.518 96.664 C 113.622 96.664 113.062 95.693 113.511 94.917 C 113.958 94.142 115.078 94.142 115.526 94.917 C 115.628 95.095 115.682 95.295 115.682 95.499 C 115.681 96.142 115.16 96.663 114.518 96.664 Z M 114.518 94.491 C 113.741 94.491 113.257 95.332 113.644 96.004 C 114.032 96.677 115.003 96.677 115.392 96.004 C 115.48 95.85 115.527 95.677 115.527 95.499 C 115.527 94.943 115.075 94.492 114.518 94.491 Z" fill="#e6e6e6" style="" transform="matrix(0, 1, -1, 0, 210.017254, -19.017506)"/>
  <path d="M 119.954 92.642 L 117.615 92.609 L 118.813 90.6 L 119.954 92.642 Z M 117.886 92.457 L 119.688 92.483 L 118.808 90.91 L 117.886 92.457 Z" fill="#e6e6e6" style="" transform="matrix(0, 1, -1, 0, 210.405499, -27.163502)"/>
  <path d="M 115.526 88.517 L 113.663 88.517 L 113.663 86.654 L 115.526 86.654 L 115.526 88.517 Z M 113.819 88.36 L 115.37 88.36 L 115.37 86.809 L 113.819 86.809 L 113.819 88.36 Z" fill="#e6e6e6" style="" transform="matrix(0, 1, -1, 0, 202.18, -27.009003)"/>
  <polygon points="111.6 92.345 110.747 91.493 111.498 90.742 111.389 90.632 110.637 91.383 109.884 90.632 109.775 90.742 110.527 91.493 109.674 92.345 109.783 92.455 110.637 91.602 111.49 92.455 111.6 92.345" fill="#e6e6e6" style="" transform="matrix(0, 1, -1, 0, 202.180504, -19.093498)"/>
</svg>