<?xml version="1.0" encoding="utf-8"?>
<svg width="660.04004" height="477.55556" viewBox="0 0 660.04004 477.55556" xmlns="http://www.w3.org/2000/svg">
  <g>
    <circle cx="216.7484" cy="34.0197" r="24.91179" fill="#ffb6b6"/>
    <path d="M229.94928,64.18796l-32.79055,9.36873-4.68436,10.53982-10.53982,50.35692v79.6342s-12.882,28.10619-5.85546,52.69911c7.51071,26.28749,33.96165-4.73969,53.8702-1.19875,19.90855,3.54094,51.52801,7.05421,51.52801,7.05421l-18.73746-85.48966-4.68436-104.22712-28.10619-18.73746Z" fill="#e6e6e6"/>
    <path d="M223.76134,42.17768l-5.06481-2.5324s-1.2662-11.39582-3.79861-13.92822-2.5324-3.79861-2.5324-3.79861l3.79861-5.06481s-18.99303,10.12962-22.79164,3.79861,1.2662-8.86341,1.2662-8.86341l-6.33101-5.06481s7.59721,5.06481,8.86341,1.2662,8.86341-6.37588,8.86341-6.37588c0,0,16.59024,3.75374,15.25923,0s3.7338,.04487,5,1.31107,12.66202,13.92822,13.92822,12.66202,7.59721,2.5324,6.33101,3.79861-1.2662,2.5324,0,3.79861,8.86341,15.19443,2.5324,20.25923-15.19443,11.39582-13.92822,16.46063,0-16.46063-11.39582-17.72683Z" fill="#2f2e41"/>
    <g>
      <path id="uuid-9ec032c4-1053-42c3-862e-530ead60710b-804" d="M100.95799,104.89896c-6.39397-5.51185-8.73284-13.27878-5.2244-17.34737,3.50845-4.06859,11.53448-2.89783,17.93,2.61684,2.58496,2.16784,4.61318,4.92321,5.91495,8.03559l26.79659,23.69607-11.3879,12.33783-25.20765-24.67002c-3.27122-.82947-6.29616-2.43045-8.82158-4.66895Z" fill="#ffb6b6"/>
      <path d="M192.75544,84.49934l17.65114-1.60465,15.47964,73.82595c2.9496,14.06732-6.27162,27.80125-20.40865,30.39628l-12.72213,2.33531L111.66907,118.05816l11.84671-19.74888,59.79747,37.51023,9.4422-51.32018Z" fill="#e6e6e6"/>
    </g>
    <g>
      <path d="M153.34876,412.8125s-14,26-13,25,18,5,18,5l10-26-15-4Z" fill="#ffb6b6"/>
      <path d="M132.68509,230.81684s-7.16655,28.64683-6.44358,27.43137,18.67696,.41363,18.67696,.41363l3.28972-27.66185-15.52309-.18316Z" fill="#ffb6b6"/>
      <path d="M257.34876,226c-31.63831,4.44458-60.21521,.56946-83.5-17.6875,0,0-17,57,14,63s65.5-4.3125,69.5-14.3125,0-31,0-31Z" fill="#2f2e41"/>
      <polygon points="198.34876 244 163.84876 325.3125 147.84876 419.3125 168.84876 424.3125 206.41175 337.8125 257.34876 255 198.34876 244" fill="#2f2e41"/>
      <path d="M193.84876,220.8125s-8-62-23-66c-7.31258-1.95002-14.14983-1.76109-19.23729-1.05526-5.12763,.7114-9.2153,4.62901-10.11188,9.72753l-13.63114,77.51524h19.27559l6.20472-21,16.5,28.8125,24-28Z" fill="#2f2e41"/>
      <path d="M144.84876,250.8125l-19.05906-2-2.94094,11s-31,28-15,30c16,2,31-9,31-9l22.00984-12.62598s-8.50984-22.68652-14.50984-22.68652-1.5,5.3125-1.5,5.3125Z" fill="#2f2e41"/>
      <path d="M154.84876,438.3125l-19.05906-2-2.94094,11s-31,28-15,30,31-9,31-9l22.00984-12.62598s-1.50984-23.68652-7.50984-23.68652c-6,0-8.5,6.3125-8.5,6.3125Z" fill="#2f2e41"/>
    </g>
    <g>
      <path id="uuid-0c2c35cf-ee7e-4b84-8f52-274d32364181-805" d="M251.35106,286.92829c-2.298,7.88141-8.22731,13.08423-13.24285,11.62094-5.01554-1.46328-7.21728-9.03767-4.91741-16.92158,.87551-3.1619,2.49549-6.06816,4.72445-8.47561l10.15843-33.27088,15.51144,5.09985-11.66124,32.25775c.58564,3.22925,.38922,6.55181-.57282,9.68953Z" fill="#ffb6b6"/>
      <path d="M262.08753,83.07027l-8.08811-2.28114v.00002c-7.62668,15.17437-10.90619,32.16302-9.47558,49.08582l3.99188,47.2203-13.17149,82.99774,25.81615,6.67893,20.34392-104.15843-19.41677-79.54323Z" fill="#e6e6e6"/>
    </g>
  </g>
  <path d="M446.7331,38.54343s9.5367,5.59286,6.40901,11.12384-7.48797,13.06482-4.52991,15.43753c2.95806,2.37271,7.84181,12.83402,7.84181,12.83402,0,0,20.84546-2.91147,18.88847,13.28104-1.95699,16.19251-11.74981,18.4001-3.35622,25.52361,8.39359,7.12351-8.72353,15.64313-8.72353,15.64313,0,0-11.81694-3.68246-14.51291-15.00651s2.40329,8.65867,.6931,10.09147-8.3507,10.87704-13.04953-1.6796c-4.69882-12.55664-.04587-17.42509-6.25467-24.83589s-10.43002-19.39737-10.24509-21.49269-7.10211-21.21531,4.11419-28.67198c11.2163-7.45667,22.72528-12.24795,22.72528-12.24795Z" fill="#2f2e41"/>
  <g>
    <path id="uuid-40eda929-ef4c-4923-ad7d-cda70967e632-806" d="M540.66959,214.23301c5.53698,4.58251,12.38962,5.44008,15.30538,1.91583,2.91576-3.52425,.79041-10.09475-4.74915-14.67816-2.18772-1.86124-4.78935-3.17149-7.58725-3.82113l-23.70562-19.12002-8.73535,11.3156,24.29696,17.6476c1.16196,2.62782,2.93649,4.93908,5.17504,6.74028Z" fill="#ffb6b6"/>
    <path d="M469.62212,109.95774s-18.60329-12.44127-24.69534-6.34072c-6.09205,6.10055-4.63711,21.33801-4.63711,21.33801l48.78561,56.85605,38.68463,24.58959,10.37307-16.24274-32.5228-29.0209-35.98806-51.17928Z" fill="#3f3d56"/>
  </g>
  <polygon points="442.3527 83.00787 449.1027 107 412.05545 107 424.2548 77.43806 442.3527 83.00787" fill="#ffb6b6"/>
  <polygon points="442.3527 83.00787 449.1027 107 412.05545 107 424.2548 77.43806 442.3527 83.00787" opacity=".1"/>
  <g>
    <path id="uuid-c7296f43-523d-4c33-91d5-0d02a2c7186e-807" d="M361.56011,260.14928c-.47825,7.17139,2.83434,13.23116,7.39831,13.53477s8.65017-5.2634,9.12763-12.43741c.23003-2.86311-.22893-5.73967-1.33852-8.38903l1.64263-30.41108-14.28746-.46665-.10246,30.02948c-1.45178,2.4795-2.28851,5.27069-2.44012,8.13992Z" fill="#ffb6b6"/>
    <path d="M404.58148,141.53126s-.79011-22.36612-9.30155-23.73912-20.01953,8.71962-20.01953,8.71962l-17.58081,72.82555,2.68236,45.75973,19.24177-1.08692,4.51599-43.35379,20.46177-59.12508Z" fill="#3f3d56"/>
  </g>
  <path d="M487.1027,408.8125s14,26,13,25-18,5-18,5l-10-26,15-4Z" fill="#ffb6b6"/>
  <path d="M507.76636,226.81684s7.16655,28.64683,6.44358,27.43137-18.67696,.41363-18.67696,.41363l-3.28972-27.66185,15.52309-.18316Z" fill="#ffb6b6"/>
  <path d="M452.1027,99h-34.95276l-38.04724,26-11,91,6,18,11,21s-11-46,16-28,29,21,29,21l36-18,13.5-74.5-10-41-17.5-15.5Z" fill="#3f3d56"/>
  <path d="M383.1027,222c31.63831,4.44458,60.21521,.56946,83.5-17.6875,0,0,17,57-14,63-31,6-65.5-4.3125-69.5-14.3125-4-10,0-31,0-31Z" fill="#2f2e41"/>
  <polygon points="442.1027 240 476.6027 321.3125 492.6027 415.3125 471.6027 420.3125 434.0397 333.8125 383.1027 251 442.1027 240" fill="#2f2e41"/>
  <path d="M446.6027,216.8125s8-62,23-66c7.31258-1.95002,14.14983-1.76109,19.23729-1.05526,5.12763,.7114,9.2153,4.62901,10.11188,9.72753l13.63114,77.51524h-19.27559l-6.20472-21-16.5,28.8125-24-28Z" fill="#2f2e41"/>
  <path d="M495.6027,246.8125l19.05906-2,2.94094,11s31,28,15,30c-16,2-31-9-31-9l-22.00984-12.62598s8.50984-22.68652,14.50984-22.68652,1.5,5.3125,1.5,5.3125Z" fill="#2f2e41"/>
  <path d="M485.6027,434.3125l19.05906-2,2.94094,11s31,28,15,30c-16,2-31-9-31-9l-22.00984-12.62598s1.50984-23.68652,7.50984-23.68652,8.5,6.3125,8.5,6.3125Z" fill="#2f2e41"/>
  <circle cx="433.55089" cy="65.9109" r="22.31062" fill="#ffb6b6"/>
  <path d="M442.1033,40.99737s3.71844,10.41162-2.23106,12.64269-14.13006,5.20581-13.38637,8.92425-2.23106,14.87375-2.23106,14.87375c0,0,17.8485,11.15531,5.9495,22.31062-11.899,11.15531-20.82325,6.5585-18.96403,17.40931s-16.73297,6.38869-16.73297,6.38869c0,0-6.69319-10.41162-1.48737-20.82325,5.20581-10.41162-3.71844,8.18056-5.9495,8.18056s-13.38637,2.97475-8.92425-9.66794,11.15531-13.38637,11.15531-23.05431c0-9.66794,4.46212-21.56694,5.9495-23.05431s8.18056-20.82325,21.56694-19.33587,25.28537,5.20581,25.28537,5.20581Z" fill="#2f2e41"/>
  <path d="M247.1027,408.8125s-14,26-13,25,18,5,18,5l10-26-15-4Z" fill="#a0616a"/>
  <path d="M351.1027,222c-31.63831,4.44458-60.21521,.56946-83.5-17.6875,0,0-17,57,14,63,31,6,65.5-4.3125,69.5-14.3125s0-31,0-31Z" fill="#2f2e41"/>
  <polygon points="292.1027 240 257.6027 321.3125 241.6027 415.3125 262.6027 420.3125 300.16569 333.8125 351.1027 251 292.1027 240" fill="#2f2e41"/>
  <path d="M248.6027,434.3125l-19.05906-2-2.94094,11s-31,28-15,30,31-9,31-9l22.00984-12.62598s-1.50984-23.68652-7.50984-23.68652-8.5,6.3125-8.5,6.3125Z" fill="#2f2e41"/>
  <path d="M278.71441,395.13321s-5.296,29.05086-4.65328,27.79113,18.66453-.79697,18.66453-.79697l1.49111-27.81684-15.50236,.82268Z" fill="#a0616a"/>
  <polygon points="269.44 220.67219 261.70809 308.66191 275.48796 403.01293 297.00616 401.29045 306.05129 307.42132 328.9557 212.93387 269.44 220.67219" fill="#2f2e41"/>
  <path d="M288.00811,418.92663l-18.74642,3.97736,.59606,11.37075s-20.84978,36.19788-5.0132,33.16425c15.83657-3.03363,26.71137-18.12465,26.71137-18.12465l17.04109-18.80026s-8.7436-22.06536-14.45093-20.21433-6.13796,8.62688-6.13796,8.62688Z" fill="#2f2e41"/>
  <path d="M287.47229,38.54343s-9.5367,5.59286-6.40901,11.12384,7.48797,13.06482,4.52991,15.43753-7.84181,12.83402-7.84181,12.83402c0,0-20.84546-2.91147-18.88847,13.28104s11.74981,18.4001,3.35622,25.52361c-8.39359,7.12351,8.72353,15.64313,8.72353,15.64313,0,0,11.81694-3.68246,14.51291-15.00651s-2.40329,8.65867-.6931,10.09147,8.3507,10.87704,13.04953-1.6796,.04587-17.42509,6.25467-24.83589c6.20879-7.4108,10.43002-19.39737,10.24509-21.49269s7.10211-21.21531-4.11419-28.67198c-11.2163-7.45667-22.72528-12.24795-22.72528-12.24795Z" fill="#2f2e41"/>
  <polygon points="291.8527 83.00787 285.1027 107 322.14994 107 309.9506 77.43806 291.8527 83.00787" fill="#a0616a"/>
  <polygon points="291.8527 83.00787 285.1027 107 322.14994 107 309.9506 77.43806 291.8527 83.00787" opacity=".1"/>
  <g>
    <path id="uuid-30591428-cd87-4ca8-90c0-8a5e265d7e31-808" d="M372.64528,260.14928c.47825,7.17139-2.83434,13.23116-7.39831,13.53477s-8.65017-5.2634-9.12763-12.43741c-.23003-2.86311,.22893-5.73967,1.33852-8.38903l-1.64263-30.41108,14.28746-.46665,.10246,30.02948c1.45178,2.4795,2.28851,5.27069,2.44012,8.13992Z" fill="#a0616a"/>
    <path d="M329.62391,141.53126s.79011-22.36612,9.30155-23.73912c8.51144-1.373,20.01953,8.71962,20.01953,8.71962l17.58081,72.82555-2.68236,45.75973-19.24177-1.08692-4.51599-43.35379-20.46177-59.12508Z" fill="#55befa"/>
  </g>
  <path d="M282.1027,99h34.95276l38.04724,26,11,91-6,18-11,21s11-46-16-28c-.27,.18-.5375,.3585-.80252,.53551-17.38039,11.60857-40.3139,10.41672-56.40234-2.92491l-12.79514-10.61061,7-35-5.5-64.5,17.5-15.5Z" fill="#55befa"/>
  <g>
    <path id="uuid-53b096d6-03cc-438c-8f9a-f5acbbdd06bd-809" d="M 223.042 252.323 C 217.155 257.193 214.015 258.522 211.373 254.922 C 208.731 251.322 206.49 245.122 208.71 240.623 C 209.981 238.048 215.379 233.249 218.186 232.642 L 236.684 201.364 L 243.414 217.392 L 226.181 241.998 C 225.519 244.608 225.402 250.371 223.042 252.323 Z" fill="#a0616a"/>
    <path d="M 267.266 109.746 C 267.266 109.746 286.056 97.589 292.055 103.781 C 298.053 109.974 296.367 125.188 296.367 125.188 L 258.938 188.93 L 237.901 228.197 L 223.806 222.182 L 246.078 173.809 L 267.266 109.746 Z" fill="#55befa"/>
  </g>
  <circle cx="300.6545" cy="65.9109" r="22.31062" fill="#a0616a"/>
  <path d="M289.54777,50.9563s-3.28686-10.9563,2.19128-10.9563,27.39066,1.09563,29.58191,3.28688,28.12051,24.1831,12.78175,41.71312c-15.33877,17.53002,0,26,0,26,0,0,11.32203,26.51074,.36577,28.70199-10.95626,2.19125-55.89775-10.33834-44.9207-30.67758,11.91235-22.07227,17.45483-56.90991,0-58.06812Z" fill="#2f2e41"/>
  <path d="M 890.858 268.017 C 890.644 267.052 891.354 266.127 892.343 266.086 L 893.969 260.68 L 895.849 262.932 L 894.016 267.72 C 893.986 268.949 892.637 269.685 891.588 269.045 C 891.214 268.816 890.95 268.445 890.858 268.017 L 890.858 268.017 Z" fill="#ffb6b6" style=""/>
  <path d="M 784.169 240.057 C 787.337 238.564 789.826 235.931 791.139 232.684 C 791.269 232.363 791.761 232.581 791.632 232.902 C 790.259 236.278 787.663 239.013 784.363 240.559 C 784.049 240.707 783.856 240.203 784.169 240.057 L 784.169 240.057 Z" fill="#fff" style=""/>
  <path d="M 868.79 227.856 C 871.958 226.362 874.447 223.73 875.76 220.483 C 875.89 220.161 876.383 220.38 876.253 220.701 C 874.88 224.077 872.285 226.812 868.985 228.358 C 868.67 228.505 868.478 228.002 868.79 227.856 L 868.79 227.856 Z" fill="#fff" style=""/>
  <path d="M 773.411 307.447 L 775.27 308.886 L 782.498 310.141 L 790.532 290.17 C 790.532 290.17 795.452 274.779 809.228 277.928 L 853.506 277.14 C 853.506 277.14 867.101 275.747 869.348 282.159 C 869.774 283.373 881.254 310.202 881.254 310.202 L 889.303 309.066 L 888.339 286.193 L 869.221 241.816 L 835.992 239.741 L 801.749 242.111 L 773.411 307.447 Z" fill="#3f3d56" style=""/>
  <circle cx="810.212" cy="266.514" r="12.792" fill="#2f2e41" style=""/>
  <circle cx="853.113" cy="266.514" r="12.792" fill="#2f2e41" style=""/>
  <path d="M 795.255 224.597 L 800.522 223.564 C 800.522 223.564 840.177 217.906 865.242 224.597 L 863.346 229.91 L 797.026 229.516 L 795.255 224.597 Z" fill="#e6e6e6" style=""/>
  <path d="M 848.722 252.049 L 815.068 252.049 C 810.982 252.049 807.451 249.22 806.671 245.322 L 802.988 226.901 C 802.824 226.088 803.009 225.243 803.498 224.574 C 804.01 223.872 804.79 223.413 805.653 223.308 C 823.402 221.105 840.978 221.101 857.892 223.297 C 858.742 223.401 859.511 223.854 860.015 224.547 C 860.501 225.206 860.692 226.038 860.541 226.844 L 857.141 245.208 C 856.407 249.172 852.866 252.049 848.722 252.049 Z" fill="#55befa" style=""/>
  <path d="M 780.285 227.596 L 780.432 224.959 C 780.478 224.126 780.93 223.368 781.642 222.931 C 783.767 221.628 789.498 218.758 796.813 220.262 C 797.865 220.48 798.669 221.333 798.823 222.397 L 799.019 223.768 L 780.285 227.596 Z" fill="#3f3d56" style=""/>
  <path d="M 883.433 227.596 L 864.699 223.768 L 865.014 221.565 C 865.088 221.032 865.478 220.599 866 220.469 C 874.436 218.352 880.892 222.111 882.671 223.314 C 883.013 223.546 883.227 223.924 883.251 224.337 L 883.433 227.596 Z" fill="#3f3d56" style=""/>
  <path d="M 774.337 309.166 C 773.886 309.171 773.442 309.046 773.059 308.806 C 768.043 305.877 764.916 300.51 763.772 292.857 C 762.827 286.536 763.221 278.602 764.945 269.275 C 768.001 252.739 774.406 236.21 777.018 229.871 C 777.72 228.175 779.186 226.912 780.968 226.47 C 786.352 225.146 795.752 222.924 798.207 222.924 C 801.571 222.924 803.392 226.091 803.41 226.123 L 803.42 226.149 L 806.374 238.96 L 806.374 239.145 C 808.004 244.66 806.793 248.643 805.489 251.014 C 804.074 253.588 802.243 254.873 802.225 254.885 C 799.349 257.074 794.665 264.126 790.003 273.286 C 785.158 282.805 781.566 292.198 780.396 298.412 C 778.963 306.018 776.862 308.347 775.352 308.961 C 775.03 309.094 774.686 309.164 774.337 309.166 Z" fill="#e6e6e6" style=""/>
  <path d="M 847.613 250.475 L 815.815 250.475 C 811.944 250.47 808.618 247.727 807.875 243.929 L 804.395 226.014 C 804.069 224.339 805.225 222.736 806.917 222.517 C 823.688 220.374 840.296 220.371 856.278 222.506 C 857.944 222.733 859.085 224.303 858.785 225.958 L 855.573 243.819 C 854.882 247.673 851.528 250.478 847.613 250.475 Z" fill="#e6e6e6" style=""/>
  <path d="M 889.381 309.166 C 889.033 309.164 888.688 309.095 888.366 308.961 C 886.856 308.347 884.755 306.018 883.322 298.412 C 882.151 292.198 878.56 282.805 873.715 273.286 C 869.053 264.126 864.368 257.074 861.49 254.883 C 861.475 254.873 859.644 253.588 858.229 251.014 C 856.925 248.643 855.714 244.66 857.344 239.145 L 857.346 238.938 L 860.301 226.135 L 860.308 226.123 C 860.326 226.091 862.146 222.924 865.511 222.924 C 867.965 222.924 877.365 225.146 882.75 226.47 C 884.532 226.912 885.998 228.175 886.7 229.871 C 889.312 236.21 895.717 252.739 898.773 269.275 C 900.496 278.602 900.891 286.536 899.946 292.857 C 898.801 300.51 895.674 305.877 890.651 308.811 C 890.271 309.048 889.83 309.171 889.381 309.166 Z" fill="#e6e6e6" style=""/>
  <circle cx="810.212" cy="264.349" r="7.675" fill="#3f3d56" style=""/>
  <circle cx="810.212" cy="264.349" r="5.117" fill="#2f2e41" style=""/>
  <circle cx="853.113" cy="264.349" r="7.675" fill="#3f3d56" style=""/>
  <circle cx="853.113" cy="264.349" r="5.117" fill="#2f2e41" style=""/>
  <circle cx="826.939" cy="254.509" r="0.59" fill="#2f2e41" style=""/>
  <circle cx="829.497" cy="254.509" r="0.59" fill="#2f2e41" style=""/>
  <circle cx="828.317" cy="256.674" r="0.59" fill="#2f2e41" style=""/>
  <circle cx="830.678" cy="256.674" r="0.59" fill="#2f2e41" style=""/>
  <circle cx="833.04" cy="256.674" r="0.59" fill="#2f2e41" style=""/>
  <circle cx="835.401" cy="256.674" r="0.59" fill="#2f2e41" style=""/>
  <circle cx="832.056" cy="254.509" r="0.59" fill="#2f2e41" style=""/>
  <circle cx="834.614" cy="254.509" r="0.59" fill="#2f2e41" style=""/>
  <circle cx="837.172" cy="254.509" r="0.59" fill="#2f2e41" style=""/>
  <path d="M 834.417 272.713 L 829.301 272.713 C 828.619 272.713 828.193 271.975 828.534 271.384 C 828.692 271.11 828.984 270.941 829.301 270.941 L 834.417 270.941 C 835.099 270.941 835.525 271.679 835.184 272.27 C 835.026 272.544 834.734 272.713 834.417 272.713 Z" fill="#2f2e41" style=""/>
  <path d="M 800.538 234.217 C 799.858 234.215 799.269 233.747 799.112 233.086 L 798.328 229.754 C 798.07 228.654 799.099 227.688 800.181 228.014 C 800.682 228.166 801.064 228.572 801.184 229.081 L 801.969 232.413 C 802.185 233.335 801.485 234.217 800.538 234.217 L 800.538 234.217 Z" fill="#3f3d56" style=""/>
  <path d="M 863.377 234.02 C 862.43 234.02 861.73 233.138 861.945 232.216 L 862.73 228.884 C 862.99 227.785 864.343 227.38 865.165 228.155 C 865.546 228.514 865.706 229.048 865.587 229.557 L 864.802 232.889 C 864.646 233.55 864.056 234.018 863.377 234.02 L 863.377 234.02 Z" fill="#3f3d56" style=""/>
  <path d="M 789.711 244.05 C 789.228 244.05 788.757 243.902 788.362 243.624 L 786.715 242.471 C 786.086 242.031 785.711 241.311 785.711 240.543 L 785.711 237.012 C 785.712 235.536 786.909 234.339 788.385 234.338 L 790.908 234.338 C 792.384 234.339 793.581 235.536 793.583 237.012 L 793.583 240.578 C 793.581 241.326 793.226 242.028 792.625 242.473 L 791.107 243.591 C 790.703 243.889 790.214 244.05 789.711 244.05 Z" fill="#3f3d56" style=""/>
  <path d="M 790.908 256.969 L 788.385 256.969 C 786.909 256.967 785.712 255.771 785.711 254.295 L 785.711 250.763 C 785.711 249.996 786.086 249.276 786.715 248.835 L 788.362 247.682 C 789.189 247.103 790.294 247.116 791.107 247.716 L 792.625 248.834 C 793.226 249.279 793.581 249.981 793.583 250.729 L 793.583 254.295 C 793.581 255.771 792.384 256.967 790.908 256.969 Z" fill="#3f3d56" style=""/>
  <path d="M 798.78 249.589 L 795.249 249.589 C 794.481 249.589 793.761 249.214 793.321 248.585 L 792.168 246.938 C 791.588 246.111 791.601 245.006 792.201 244.193 L 793.319 242.675 C 793.764 242.074 794.467 241.719 795.214 241.718 L 798.78 241.718 C 800.256 241.719 801.453 242.916 801.454 244.392 L 801.454 246.915 C 801.453 248.391 800.256 249.588 798.78 249.589 Z" fill="#3f3d56" style=""/>
  <path d="M 783.848 249.589 L 780.317 249.589 C 778.84 249.588 777.644 248.391 777.642 246.915 L 777.642 244.392 C 777.644 242.916 778.84 241.719 780.317 241.718 L 783.883 241.718 C 784.63 241.719 785.333 242.074 785.777 242.675 L 786.895 244.193 C 787.495 245.006 787.509 246.111 786.929 246.938 L 785.776 248.585 C 785.335 249.214 784.616 249.589 783.848 249.589 Z" fill="#3f3d56" style=""/>
  <circle cx="874.169" cy="235.617" r="4.526" fill="#3f3d56" style=""/>
  <circle cx="884.206" cy="246.047" r="4.526" fill="#3f3d56" style=""/>
  <circle cx="874.169" cy="255.887" r="4.526" fill="#3f3d56" style=""/>
  <circle cx="864.133" cy="245.85" r="4.526" fill="#3f3d56" style=""/>
  <path d="M 884.206 248.999 C 881.934 248.999 880.513 246.539 881.65 244.571 C 882.786 242.603 885.626 242.603 886.762 244.571 C 887.021 245.02 887.158 245.529 887.158 246.047 C 887.156 247.677 885.835 248.997 884.206 248.999 Z M 884.206 243.489 C 882.237 243.489 881.006 245.621 881.99 247.326 C 882.975 249.032 885.437 249.032 886.422 247.326 C 886.646 246.937 886.764 246.496 886.764 246.047 C 886.763 244.635 885.618 243.49 884.206 243.489 Z" fill="#e6e6e6" style=""/>
  <path d="M 877.332 237.813 L 871.4 237.729 L 874.439 232.634 L 877.332 237.813 Z M 872.087 237.345 L 876.656 237.41 L 874.428 233.421 L 872.087 237.345 Z" fill="#e6e6e6" style=""/>
  <path d="M 866.495 248.212 L 861.772 248.212 L 861.772 243.489 L 866.495 243.489 L 866.495 248.212 Z M 862.165 247.818 L 866.101 247.818 L 866.101 243.882 L 862.165 243.882 L 862.165 247.818 Z" fill="#e6e6e6" style=""/>
  <polygon points="876.612 257.919 874.448 255.759 876.356 253.855 876.078 253.576 874.17 255.481 872.261 253.576 871.983 253.855 873.891 255.759 871.727 257.919 872.005 258.197 874.17 256.037 876.334 258.197 876.612 257.919" fill="#e6e6e6" style=""/>
  <path d="M 553.563 252.669 C 553.482 252.303 553.752 251.952 554.127 251.936 L 554.745 249.883 L 555.459 250.738 L 554.763 252.557 C 554.751 253.023 554.239 253.303 553.841 253.06 C 553.699 252.973 553.598 252.832 553.563 252.669 Z" fill="#ffb6b6" style="" transform="matrix(0, 1, -1, 0, 806.020012, -302.987556)"/>
  <path d="M 563.907 212.784 C 565.11 212.217 566.055 211.217 566.554 209.984 C 566.603 209.863 566.79 209.945 566.741 210.067 C 566.219 211.349 565.234 212.388 563.981 212.975 C 563.861 213.031 563.788 212.84 563.907 212.784 Z" fill="#fff" style="" transform="matrix(0, 1, -1, 0, 776.752625, -353.842896)"/>
  <path d="M 568.54 244.917 C 569.743 244.35 570.688 243.35 571.186 242.117 C 571.236 241.995 571.423 242.078 571.374 242.2 C 570.852 243.482 569.867 244.521 568.614 245.108 C 568.494 245.164 568.421 244.973 568.54 244.917 Z" fill="#fff" style="" transform="matrix(0, 1, -1, 0, 813.518394, -326.343117)"/>
  <path d="M 528.707 240.314 L 529.413 240.86 L 532.157 241.337 L 535.208 233.753 C 535.208 233.753 537.076 227.909 542.307 229.105 L 559.121 228.806 C 559.121 228.806 564.283 228.277 565.137 230.711 C 565.298 231.172 569.658 241.36 569.658 241.36 L 572.714 240.929 L 572.348 232.243 L 565.088 215.392 L 552.47 214.604 L 539.468 215.504 L 528.707 240.314 Z" fill="#3f3d56" style="" transform="matrix(0, 1, -1, 0, 778.692482, -322.728477)"/>
  <circle cx="559.269" cy="206.879" r="4.857" fill="#2f2e41" style="" transform="matrix(0, 1, -1, 0, 760.800171, -339.315918)"/>
  <circle cx="575.56" cy="206.879" r="4.857" fill="#2f2e41" style="" transform="matrix(0, 1, -1, 0, 760.800171, -339.315918)"/>
  <path d="M 556.163 227.173 L 558.163 226.78 C 558.163 226.78 573.221 224.632 582.738 227.173 L 582.018 229.19 L 556.835 229.041 L 556.163 227.173 Z" fill="#e6e6e6" style="" transform="matrix(0, 1, -1, 0, 797.011467, -341.889534)"/>
  <path d="M 571.626 233.907 L 558.847 233.907 C 557.296 233.907 555.955 232.833 555.659 231.352 L 554.26 224.358 C 554.198 224.049 554.268 223.728 554.454 223.474 C 554.648 223.207 554.944 223.033 555.272 222.993 C 562.012 222.157 568.686 222.155 575.108 222.989 C 575.431 223.029 575.723 223.201 575.915 223.464 C 576.099 223.714 576.172 224.03 576.114 224.336 L 574.823 231.309 C 574.545 232.814 573.2 233.907 571.626 233.907 Z" fill="#55befa" style="" transform="matrix(0, 1, -1, 0, 793.321602, -337.049858)"/>
  <path d="M 566.616 213.619 L 566.672 212.618 C 566.689 212.302 566.861 212.014 567.131 211.848 C 567.938 211.353 570.115 210.263 572.892 210.835 C 573.292 210.917 573.597 211.241 573.655 211.645 L 573.73 212.166 L 566.616 213.619 Z" fill="#3f3d56" style="" transform="matrix(0, 1, -1, 0, 782.319099, -358.026909)"/>
  <path d="M 573.731 245.673 L 566.617 244.22 L 566.737 243.383 C 566.765 243.181 566.913 243.017 567.111 242.967 C 570.315 242.163 572.766 243.591 573.442 244.047 C 573.571 244.136 573.653 244.279 573.662 244.436 L 573.731 245.673 Z" fill="#3f3d56" style="" transform="matrix(0, 1, -1, 0, 814.37355, -325.974472)"/>
  <path d="M 549.969 226.836 C 549.797 226.838 549.629 226.79 549.483 226.699 C 547.579 225.587 546.391 223.549 545.957 220.643 C 545.598 218.242 545.747 215.23 546.402 211.688 C 547.563 205.409 549.995 199.132 550.987 196.725 C 551.253 196.081 551.81 195.602 552.486 195.434 C 554.531 194.931 558.1 194.087 559.033 194.087 C 560.31 194.087 561.001 195.29 561.008 195.302 L 561.012 195.312 L 562.134 200.177 L 562.134 200.247 C 562.753 202.341 562.293 203.854 561.798 204.754 C 561.26 205.731 560.565 206.219 560.558 206.224 C 559.466 207.055 557.688 209.733 555.917 213.211 C 554.078 216.826 552.714 220.392 552.269 222.752 C 551.725 225.64 550.927 226.525 550.354 226.758 C 550.232 226.808 550.101 226.835 549.969 226.836 Z" fill="#e6e6e6" style="" transform="matrix(0, 1, -1, 0, 764.560989, -343.637924)"/>
  <path d="M 571.712 233.683 L 559.638 233.683 C 558.168 233.681 556.905 232.64 556.623 231.197 L 555.301 224.395 C 555.177 223.759 555.616 223.15 556.259 223.067 C 562.627 222.253 568.934 222.252 575.003 223.063 C 575.635 223.149 576.068 223.745 575.955 224.373 L 574.735 231.156 C 574.472 232.619 573.199 233.684 571.712 233.683 Z" fill="#e6e6e6" style="" transform="matrix(0, 1, -1, 0, 793.695808, -337.557182)"/>
  <path d="M 558.231 262.259 C 558.098 262.258 557.967 262.232 557.845 262.181 C 557.272 261.948 556.474 261.063 555.93 258.175 C 555.485 255.815 554.122 252.249 552.282 248.634 C 550.512 245.156 548.733 242.478 547.64 241.646 C 547.634 241.642 546.939 241.154 546.401 240.177 C 545.906 239.277 545.446 237.764 546.065 235.67 L 546.066 235.591 L 547.188 230.73 L 547.191 230.725 C 547.198 230.713 547.889 229.51 549.167 229.51 C 550.098 229.51 553.668 230.354 555.713 230.857 C 556.389 231.025 556.946 231.504 557.213 232.148 C 558.204 234.555 560.637 240.832 561.797 247.111 C 562.451 250.653 562.601 253.665 562.242 256.066 C 561.808 258.972 560.62 261.01 558.713 262.124 C 558.569 262.214 558.401 262.261 558.231 262.259 Z" fill="#e6e6e6" style="" transform="matrix(0, 1, -1, 0, 799.983955, -308.214897)"/>
  <circle cx="559.269" cy="206.056" r="2.914" fill="#3f3d56" style="" transform="matrix(0, 1, -1, 0, 760.800171, -339.315918)"/>
  <circle cx="559.269" cy="206.056" r="1.943" fill="#2f2e41" style="" transform="matrix(0, 1, -1, 0, 760.800171, -339.315918)"/>
  <circle cx="575.56" cy="206.056" r="2.914" fill="#3f3d56" style="" transform="matrix(0, 1, -1, 0, 760.800171, -339.315918)"/>
  <circle cx="575.56" cy="206.056" r="1.943" fill="#2f2e41" style="" transform="matrix(0, 1, -1, 0, 760.800171, -339.315918)"/>
  <circle cx="565.621" cy="202.32" r="0.224" fill="#2f2e41" style="" transform="matrix(0, 1, -1, 0, 760.800171, -339.315918)"/>
  <circle cx="566.592" cy="202.32" r="0.224" fill="#2f2e41" style="" transform="matrix(0, 1, -1, 0, 760.800171, -339.315918)"/>
  <circle cx="566.144" cy="203.142" r="0.224" fill="#2f2e41" style="" transform="matrix(0, 1, -1, 0, 760.800171, -339.315918)"/>
  <circle cx="567.041" cy="203.142" r="0.224" fill="#2f2e41" style="" transform="matrix(0, 1, -1, 0, 760.800171, -339.315918)"/>
  <circle cx="567.938" cy="203.142" r="0.224" fill="#2f2e41" style="" transform="matrix(0, 1, -1, 0, 760.800171, -339.315918)"/>
  <circle cx="568.834" cy="203.142" r="0.224" fill="#2f2e41" style="" transform="matrix(0, 1, -1, 0, 760.800171, -339.315918)"/>
  <circle cx="567.564" cy="202.32" r="0.224" fill="#2f2e41" style="" transform="matrix(0, 1, -1, 0, 760.800171, -339.315918)"/>
  <circle cx="568.535" cy="202.32" r="0.224" fill="#2f2e41" style="" transform="matrix(0, 1, -1, 0, 760.800171, -339.315918)"/>
  <circle cx="569.507" cy="202.32" r="0.224" fill="#2f2e41" style="" transform="matrix(0, 1, -1, 0, 760.800171, -339.315918)"/>
  <path d="M 552.875 228.509 L 550.933 228.509 C 550.674 228.509 550.512 228.229 550.641 228.005 C 550.701 227.901 550.812 227.837 550.933 227.837 L 552.875 227.837 C 553.134 227.837 553.296 228.117 553.167 228.341 C 553.107 228.445 552.996 228.509 552.875 228.509 Z" fill="#2f2e41" style="" transform="matrix(0, 1, -1, 0, 780.076996, -323.730988)"/>
  <path d="M 567.524 217.321 C 567.265 217.32 567.042 217.142 566.982 216.891 L 566.684 215.626 C 566.587 215.208 566.977 214.841 567.388 214.965 C 567.578 215.023 567.723 215.177 567.769 215.37 L 568.067 216.636 C 568.149 216.986 567.883 217.321 567.524 217.321 Z" fill="#3f3d56" style="" transform="matrix(0, 1, -1, 0, 783.506256, -351.24472)"/>
  <path d="M 567.303 241.478 C 566.944 241.478 566.678 241.143 566.759 240.793 L 567.058 239.528 C 567.156 239.11 567.67 238.956 567.982 239.251 C 568.127 239.387 568.188 239.59 568.142 239.783 L 567.844 241.048 C 567.785 241.299 567.561 241.477 567.303 241.478 Z" fill="#3f3d56" style="" transform="matrix(0, 1, -1, 0, 807.738892, -327.162598)"/>
  <path d="M 564.319 213.988 C 564.136 213.988 563.957 213.932 563.807 213.827 L 563.182 213.389 C 562.943 213.222 562.801 212.948 562.801 212.657 L 562.801 211.316 C 562.801 210.755 563.255 210.301 563.816 210.301 L 564.774 210.301 C 565.334 210.301 565.789 210.755 565.79 211.316 L 565.79 212.67 C 565.789 212.954 565.654 213.221 565.426 213.39 L 564.849 213.814 C 564.696 213.927 564.51 213.988 564.319 213.988 Z" fill="#3f3d56" style="" transform="matrix(0, 1, -1, 0, 776.440002, -352.151001)"/>
  <path d="M 559.869 213.988 L 558.911 213.988 C 558.35 213.987 557.896 213.533 557.896 212.973 L 557.896 211.632 C 557.896 211.34 558.038 211.067 558.277 210.899 L 558.902 210.462 C 559.216 210.242 559.636 210.247 559.944 210.475 L 560.521 210.899 C 560.749 211.068 560.884 211.335 560.885 211.619 L 560.885 212.973 C 560.884 213.533 560.429 213.987 559.869 213.988 Z" fill="#3f3d56" style="" transform="matrix(0, 1, -1, 0, 771.534721, -347.246284)"/>
  <path d="M 562.671 216.278 L 561.33 216.278 C 561.039 216.278 560.765 216.135 560.598 215.896 L 560.16 215.271 C 559.94 214.957 559.945 214.537 560.173 214.229 L 560.597 213.652 C 560.766 213.424 561.033 213.289 561.317 213.289 L 562.671 213.289 C 563.232 213.289 563.686 213.744 563.687 214.304 L 563.687 215.262 C 563.686 215.823 563.232 216.277 562.671 216.278 Z" fill="#3f3d56" style="" transform="matrix(0, 1, -1, 0, 776.626213, -347.059212)"/>
  <path d="M 562.355 210.924 L 561.014 210.924 C 560.453 210.923 559.999 210.469 559.999 209.908 L 559.999 208.95 C 559.999 208.39 560.453 207.935 561.014 207.935 L 562.368 207.935 C 562.652 207.935 562.919 208.07 563.088 208.298 L 563.512 208.875 C 563.74 209.183 563.745 209.603 563.525 209.917 L 563.087 210.542 C 562.92 210.781 562.647 210.924 562.355 210.924 Z" fill="#3f3d56" style="" transform="matrix(0, 1, -1, 0, 771.272301, -352.413307)"/>
  <circle cx="583.555" cy="195.146" r="1.719" fill="#3f3d56" style="" transform="matrix(0, 1, -1, 0, 760.800171, -339.315918)"/>
  <circle cx="587.367" cy="199.107" r="1.719" fill="#3f3d56" style="" transform="matrix(0, 1, -1, 0, 760.800171, -339.315918)"/>
  <circle cx="583.555" cy="202.843" r="1.719" fill="#3f3d56" style="" transform="matrix(0, 1, -1, 0, 760.800171, -339.315918)"/>
  <circle cx="579.744" cy="199.032" r="1.719" fill="#3f3d56" style="" transform="matrix(0, 1, -1, 0, 760.800171, -339.315918)"/>
  <path d="M 561.694 249.17 C 560.832 249.17 560.292 248.236 560.724 247.488 C 561.155 246.741 562.234 246.741 562.665 247.488 C 562.763 247.659 562.815 247.852 562.815 248.049 C 562.815 248.668 562.313 249.169 561.694 249.17 Z M 561.694 247.077 C 560.947 247.077 560.479 247.887 560.853 248.534 C 561.227 249.182 562.162 249.182 562.536 248.534 C 562.621 248.387 562.666 248.219 562.666 248.049 C 562.665 247.513 562.231 247.078 561.694 247.077 Z" fill="#e6e6e6" style="" transform="matrix(0, 1, -1, 0, 809.742325, -313.644577)"/>
  <path d="M 566.929 245.297 L 564.677 245.265 L 565.831 243.331 L 566.929 245.297 Z M 564.938 245.119 L 566.673 245.144 L 565.827 243.629 L 564.938 245.119 Z" fill="#e6e6e6" style="" transform="matrix(0, 1, -1, 0, 810.117004, -321.489014)"/>
  <path d="M 562.665 241.325 L 560.872 241.325 L 560.872 239.531 L 562.665 239.531 L 562.665 241.325 Z M 561.021 241.175 L 562.516 241.175 L 562.516 239.681 L 561.021 239.681 L 561.021 241.175 Z" fill="#e6e6e6" style="" transform="matrix(0, 1, -1, 0, 802.196495, -321.340492)"/>
  <polygon points="558.885 245.011 558.063 244.191 558.788 243.468 558.682 243.362 557.958 244.085 557.233 243.362 557.127 243.468 557.852 244.191 557.03 245.011 557.135 245.116 557.958 244.296 558.779 245.116 558.885 245.011" fill="#e6e6e6" style="" transform="matrix(0, 1, -1, 0, 802.196518, -313.718521)"/>
  <circle cx="174.079" cy="209.293" r="0.224" fill="#2f2e41" style=""/>
  <circle cx="175.05" cy="209.293" r="0.224" fill="#2f2e41" style=""/>
  <circle cx="174.602" cy="210.114" r="0.224" fill="#2f2e41" style=""/>
  <circle cx="175.499" cy="210.114" r="0.224" fill="#2f2e41" style=""/>
  <circle cx="176.396" cy="210.114" r="0.224" fill="#2f2e41" style=""/>
  <circle cx="177.292" cy="210.114" r="0.224" fill="#2f2e41" style=""/>
  <circle cx="176.022" cy="209.293" r="0.224" fill="#2f2e41" style=""/>
  <circle cx="176.993" cy="209.293" r="0.224" fill="#2f2e41" style=""/>
  <circle cx="177.965" cy="209.293" r="0.224" fill="#2f2e41" style=""/>
  <path d="M 176.917 216.205 L 174.975 216.205 C 174.716 216.205 174.554 215.925 174.683 215.701 C 174.743 215.597 174.854 215.533 174.975 215.533 L 176.917 215.533 C 177.176 215.533 177.338 215.813 177.209 216.037 C 177.149 216.141 177.038 216.205 176.917 216.205 Z" fill="#2f2e41" style=""/>
  <path d="M 108.542 100.339 C 108.457 99.959 108.738 99.594 109.128 99.578 L 109.768 97.447 L 110.51 98.334 L 109.787 100.222 C 109.775 100.707 109.243 100.997 108.829 100.745 C 108.682 100.654 108.578 100.508 108.542 100.339 Z" fill="#ffb6b6" style="" transform="matrix(0, 1, -1, 0, 208.660789, -10.375977)"/>
  <path d="M 119.283 58.925 C 120.532 58.336 121.513 57.298 122.031 56.017 C 122.082 55.891 122.276 55.977 122.225 56.103 C 121.684 57.435 120.661 58.513 119.359 59.122 C 119.236 59.182 119.16 58.982 119.283 58.925 Z" fill="#fff" style="" transform="matrix(0, 1, -1, 0, 178.271118, -63.182785)"/>
  <path d="M 124.092 92.29 C 125.342 91.701 126.323 90.664 126.841 89.383 C 126.893 89.256 127.087 89.342 127.036 89.469 C 126.494 90.8 125.47 91.878 124.17 92.488 C 124.045 92.546 123.97 92.347 124.092 92.29 Z" fill="#fff" style="" transform="matrix(0, 1, -1, 0, 216.446735, -34.627705)"/>
  <path d="M 82.732 87.511 L 83.465 88.078 L 86.315 88.573 L 89.483 80.699 C 89.483 80.699 91.422 74.63 96.855 75.872 L 114.312 75.561 C 114.312 75.561 119.673 75.012 120.559 77.54 C 120.726 78.019 125.253 88.597 125.253 88.597 L 128.427 88.149 L 128.046 79.131 L 120.508 61.633 L 107.407 60.815 L 93.906 61.75 L 82.732 87.511 Z" fill="#3f3d56" style="" transform="matrix(0, 1, -1, 0, 180.285501, -30.873503)"/>
  <circle cx="77.606" cy="86.396" r="5.043" fill="#2f2e41" style="" transform="matrix(0, 1, -1, 0, 195.310989, -11.237008)"/>
  <circle cx="94.52" cy="86.396" r="5.043" fill="#2f2e41" style="" transform="matrix(0, 1, -1, 0, 195.310989, -11.237008)"/>
  <path d="M 111.241 73.865 L 113.318 73.458 C 113.318 73.458 128.953 71.227 138.836 73.865 L 138.088 75.96 L 111.939 75.805 L 111.241 73.865 Z" fill="#e6e6e6" style="" transform="matrix(0, 1, -1, 0, 199.306931, -50.770065)"/>
  <path d="M 127.297 80.858 L 114.028 80.858 C 112.416 80.858 111.025 79.743 110.717 78.206 L 109.265 70.942 C 109.201 70.622 109.274 70.289 109.466 70.025 C 109.668 69.748 109.976 69.567 110.315 69.526 C 117.314 68.657 124.244 68.656 130.913 69.522 C 131.248 69.562 131.551 69.742 131.75 70.014 C 131.942 70.275 132.017 70.602 131.958 70.92 L 130.617 78.161 C 130.328 79.724 128.931 80.858 127.297 80.858 Z" fill="#55befa" style="" transform="matrix(0, 1, -1, 0, 195.475689, -45.744312)"/>
  <path d="M 122.095 59.792 L 122.154 58.752 C 122.171 58.424 122.349 58.125 122.63 57.953 C 123.469 57.438 125.728 56.307 128.612 56.9 C 129.027 56.986 129.344 57.322 129.404 57.742 L 129.482 58.282 L 122.095 59.792 Z" fill="#3f3d56" style="" transform="matrix(0, 1, -1, 0, 184.050674, -67.526321)"/>
  <path d="M 129.482 93.076 L 122.096 91.566 L 122.22 90.697 C 122.249 90.488 122.403 90.317 122.608 90.265 C 125.935 89.431 128.48 90.913 129.182 91.387 C 129.317 91.479 129.401 91.627 129.41 91.791 L 129.482 93.076 Z" fill="#3f3d56" style="" transform="matrix(0, 1, -1, 0, 217.334583, -34.243412)"/>
  <path d="M 104.81 73.515 C 104.631 73.517 104.457 73.467 104.305 73.373 C 102.328 72.218 101.095 70.101 100.644 67.084 C 100.271 64.592 100.426 61.464 101.106 57.786 C 102.311 51.266 104.836 44.749 105.866 42.249 C 106.143 41.581 106.721 41.083 107.424 40.908 C 109.546 40.387 113.253 39.511 114.22 39.511 C 115.548 39.511 116.265 40.76 116.273 40.772 L 116.276 40.782 L 117.441 45.834 L 117.441 45.907 C 118.084 48.081 117.606 49.651 117.092 50.586 C 116.534 51.601 115.813 52.107 115.805 52.113 C 114.671 52.975 112.824 55.756 110.986 59.368 C 109.075 63.12 107.66 66.825 107.198 69.275 C 106.634 72.274 105.805 73.192 105.21 73.434 C 105.083 73.486 104.947 73.514 104.81 73.515 Z" fill="#e6e6e6" style="" transform="matrix(0, 1, -1, 0, 165.611542, -52.58548)"/>
  <path d="M 127.387 80.625 L 114.85 80.625 C 113.323 80.623 112.012 79.541 111.719 78.043 L 110.346 70.98 C 110.218 70.32 110.674 69.687 111.341 69.601 C 117.954 68.756 124.502 68.755 130.804 69.597 C 131.46 69.686 131.91 70.305 131.792 70.958 L 130.526 78 C 130.253 79.52 128.931 80.626 127.387 80.625 Z" fill="#e6e6e6" style="" transform="matrix(0, 1, -1, 0, 195.863316, -46.271946)"/>
  <path d="M 113.388 110.297 C 113.252 110.296 113.115 110.268 112.988 110.216 C 112.393 109.974 111.564 109.056 110.999 106.057 C 110.538 103.607 109.121 99.902 107.212 96.15 C 105.374 92.538 103.526 89.757 102.392 88.894 C 102.385 88.889 101.664 88.383 101.106 87.368 C 100.592 86.433 100.114 84.863 100.757 82.689 L 100.758 82.606 L 101.923 77.558 L 101.925 77.554 C 101.933 77.542 102.65 76.293 103.976 76.293 C 104.944 76.293 108.65 77.169 110.774 77.69 C 111.477 77.865 112.055 78.363 112.332 79.031 C 113.361 81.531 115.886 88.048 117.092 94.568 C 117.771 98.246 117.927 101.374 117.554 103.866 C 117.103 106.883 115.87 109 113.889 110.156 C 113.739 110.25 113.566 110.299 113.388 110.297 Z" fill="#e6e6e6" style="" transform="matrix(0, 1, -1, 0, 202.394398, -15.80434)"/>
  <circle cx="77.606" cy="85.543" r="3.026" fill="#3f3d56" style="" transform="matrix(0, 1, -1, 0, 195.310989, -11.237008)"/>
  <circle cx="77.606" cy="85.543" r="2.018" fill="#2f2e41" style="" transform="matrix(0, 1, -1, 0, 195.310989, -11.237008)"/>
  <circle cx="94.52" cy="85.543" r="3.026" fill="#3f3d56" style="" transform="matrix(0, 1, -1, 0, 195.310989, -11.237008)"/>
  <circle cx="94.52" cy="85.543" r="2.018" fill="#2f2e41" style="" transform="matrix(0, 1, -1, 0, 195.310989, -11.237008)"/>
  <circle cx="84.201" cy="81.663" r="0.233" fill="#2f2e41" style="" transform="matrix(0, 1, -1, 0, 195.310989, -11.237008)"/>
  <circle cx="85.209" cy="81.663" r="0.233" fill="#2f2e41" style="" transform="matrix(0, 1, -1, 0, 195.310989, -11.237008)"/>
  <circle cx="84.744" cy="82.516" r="0.233" fill="#2f2e41" style="" transform="matrix(0, 1, -1, 0, 195.310989, -11.237008)"/>
  <circle cx="85.675" cy="82.516" r="0.233" fill="#2f2e41" style="" transform="matrix(0, 1, -1, 0, 195.310989, -11.237008)"/>
  <circle cx="86.606" cy="82.516" r="0.233" fill="#2f2e41" style="" transform="matrix(0, 1, -1, 0, 195.310989, -11.237008)"/>
  <circle cx="87.537" cy="82.516" r="0.233" fill="#2f2e41" style="" transform="matrix(0, 1, -1, 0, 195.310989, -11.237008)"/>
  <circle cx="86.218" cy="81.663" r="0.233" fill="#2f2e41" style="" transform="matrix(0, 1, -1, 0, 195.310989, -11.237008)"/>
  <circle cx="87.227" cy="81.663" r="0.233" fill="#2f2e41" style="" transform="matrix(0, 1, -1, 0, 195.310989, -11.237008)"/>
  <circle cx="88.235" cy="81.663" r="0.233" fill="#2f2e41" style="" transform="matrix(0, 1, -1, 0, 195.310989, -11.237008)"/>
  <path d="M 107.828 75.253 L 105.81 75.253 C 105.542 75.253 105.374 74.962 105.508 74.728 C 105.57 74.621 105.686 74.554 105.81 74.554 L 107.828 74.554 C 108.097 74.554 108.265 74.845 108.13 75.078 C 108.069 75.186 107.953 75.253 107.828 75.253 Z" fill="#2f2e41" style="" transform="matrix(0, 1, -1, 0, 181.722775, -31.915775)"/>
  <path d="M 123.037 63.636 C 122.769 63.635 122.537 63.451 122.475 63.19 L 122.166 61.876 C 122.064 61.443 122.469 61.062 122.896 61.191 C 123.094 61.25 123.244 61.411 123.291 61.611 L 123.602 62.925 C 123.687 63.288 123.41 63.636 123.037 63.636 Z" fill="#3f3d56" style="" transform="matrix(0, 1, -1, 0, 185.284508, -60.482994)"/>
  <path d="M 122.808 88.72 C 122.435 88.72 122.159 88.372 122.244 88.009 L 122.553 86.694 C 122.656 86.261 123.19 86.102 123.514 86.407 C 123.663 86.549 123.727 86.759 123.68 86.96 L 123.371 88.274 C 123.309 88.534 123.076 88.719 122.808 88.72 Z" fill="#3f3d56" style="" transform="matrix(0, 1, -1, 0, 210.446407, -35.477306)"/>
  <path d="M 119.712 60.175 C 119.522 60.175 119.336 60.117 119.18 60.007 L 118.531 59.553 C 118.283 59.379 118.135 59.095 118.135 58.793 L 118.135 57.4 C 118.135 56.818 118.607 56.346 119.189 56.345 L 120.184 56.345 C 120.766 56.346 121.237 56.818 121.238 57.4 L 121.238 58.807 C 121.237 59.101 121.098 59.378 120.861 59.554 L 120.262 59.994 C 120.103 60.112 119.91 60.175 119.712 60.175 Z" fill="#3f3d56" style="" transform="matrix(0, 1, -1, 0, 177.946501, -61.4265)"/>
  <path d="M 115.09 60.174 L 114.095 60.174 C 113.513 60.173 113.041 59.702 113.041 59.12 L 113.041 57.727 C 113.041 57.424 113.189 57.141 113.437 56.967 L 114.086 56.512 C 114.412 56.284 114.848 56.289 115.168 56.526 L 115.767 56.966 C 116.004 57.142 116.143 57.419 116.144 57.713 L 116.144 59.12 C 116.143 59.702 115.672 60.173 115.09 60.174 Z" fill="#3f3d56" style="" transform="matrix(0, 1, -1, 0, 172.851776, -56.333221)"/>
  <path d="M 118 62.553 L 116.608 62.553 C 116.305 62.553 116.021 62.404 115.847 62.156 L 115.393 61.507 C 115.164 61.181 115.169 60.745 115.406 60.425 L 115.847 59.826 C 116.022 59.589 116.3 59.449 116.594 59.449 L 118 59.449 C 118.582 59.449 119.054 59.921 119.054 60.503 L 119.054 61.498 C 119.054 62.08 118.582 62.552 118 62.553 Z" fill="#3f3d56" style="" transform="matrix(0, 1, -1, 0, 178.140345, -56.138342)"/>
  <path d="M 117.67 56.994 L 116.278 56.994 C 115.696 56.993 115.225 56.521 115.224 55.939 L 115.224 54.944 C 115.225 54.362 115.696 53.89 116.278 53.89 L 117.684 53.89 C 117.979 53.89 118.256 54.03 118.431 54.267 L 118.872 54.866 C 119.108 55.186 119.114 55.622 118.886 55.948 L 118.43 56.597 C 118.257 56.845 117.973 56.994 117.67 56.994 Z" fill="#3f3d56" style="" transform="matrix(0, 1, -1, 0, 172.580538, -61.696539)"/>
  <circle cx="102.823" cy="74.215" r="1.784" fill="#3f3d56" style="" transform="matrix(0, 1, -1, 0, 195.310989, -11.237008)"/>
  <circle cx="106.78" cy="78.326" r="1.784" fill="#3f3d56" style="" transform="matrix(0, 1, -1, 0, 195.310989, -11.237008)"/>
  <circle cx="102.823" cy="82.206" r="1.784" fill="#3f3d56" style="" transform="matrix(0, 1, -1, 0, 195.310989, -11.237008)"/>
  <circle cx="98.865" cy="78.249" r="1.784" fill="#3f3d56" style="" transform="matrix(0, 1, -1, 0, 195.310989, -11.237008)"/>
  <path d="M 116.985 96.707 C 116.089 96.707 115.529 95.736 115.978 94.96 C 116.425 94.185 117.545 94.185 117.993 94.96 C 118.095 95.138 118.149 95.338 118.149 95.542 C 118.148 96.185 117.627 96.706 116.985 96.707 Z M 116.985 94.534 C 116.208 94.534 115.724 95.375 116.111 96.047 C 116.499 96.72 117.47 96.72 117.859 96.047 C 117.947 95.893 117.994 95.72 117.994 95.542 C 117.994 94.986 117.542 94.535 116.985 94.534 Z" fill="#e6e6e6" style="" transform="matrix(0, 1, -1, 0, 212.527252, -21.441505)"/>
  <path d="M 122.421 92.685 L 120.082 92.652 L 121.28 90.643 L 122.421 92.685 Z M 120.353 92.5 L 122.155 92.526 L 121.275 90.953 L 120.353 92.5 Z" fill="#e6e6e6" style="" transform="matrix(0, 1, -1, 0, 212.915497, -29.587502)"/>
  <path d="M 117.993 88.56 L 116.13 88.56 L 116.13 86.697 L 117.993 86.697 L 117.993 88.56 Z M 116.286 88.403 L 117.837 88.403 L 117.837 86.852 L 116.286 86.852 L 116.286 88.403 Z" fill="#e6e6e6" style="" transform="matrix(0, 1, -1, 0, 204.689995, -29.432999)"/>
  <polygon points="114.067 92.388 113.214 91.536 113.965 90.785 113.856 90.675 113.104 91.426 112.351 90.675 112.242 90.785 112.994 91.536 112.141 92.388 112.25 92.498 113.104 91.645 113.957 92.498 114.067 92.388" fill="#e6e6e6" style="" transform="matrix(0, 1, -1, 0, 204.690502, -21.517498)"/>
  <circle cx="209.532" cy="193.923" r="0.242" fill="#2f2e41" style="" transform="matrix(0, -1, 1, 0, -17.234095, 394.522217)"/>
  <circle cx="210.583" cy="193.923" r="0.242" fill="#2f2e41" style="" transform="matrix(0, -1, 1, 0, -17.234095, 394.522217)"/>
  <circle cx="210.098" cy="194.812" r="0.242" fill="#2f2e41" style="" transform="matrix(0, -1, 1, 0, -17.234095, 394.522217)"/>
  <circle cx="211.068" cy="194.812" r="0.242" fill="#2f2e41" style="" transform="matrix(0, -1, 1, 0, -17.234095, 394.522217)"/>
  <circle cx="212.039" cy="194.812" r="0.242" fill="#2f2e41" style="" transform="matrix(0, -1, 1, 0, -17.234095, 394.522217)"/>
  <circle cx="213.009" cy="194.812" r="0.242" fill="#2f2e41" style="" transform="matrix(0, -1, 1, 0, -17.234095, 394.522217)"/>
  <circle cx="211.635" cy="193.923" r="0.242" fill="#2f2e41" style="" transform="matrix(0, -1, 1, 0, -17.234095, 394.522217)"/>
  <circle cx="212.686" cy="193.923" r="0.242" fill="#2f2e41" style="" transform="matrix(0, -1, 1, 0, -17.234095, 394.522217)"/>
  <circle cx="213.737" cy="193.923" r="0.242" fill="#2f2e41" style="" transform="matrix(0, -1, 1, 0, -17.234095, 394.522217)"/>
  <path d="M 184.858 183.333 L 182.755 183.333 C 182.475 183.333 182.3 183.03 182.44 182.787 C 182.505 182.674 182.625 182.605 182.755 182.605 L 184.858 182.605 C 185.138 182.605 185.313 182.908 185.173 183.151 C 185.108 183.263 184.988 183.333 184.858 183.333 Z" fill="#2f2e41" style="" transform="matrix(0, -1, 1, 0, 0.837509, 366.775497)"/>
</svg>