<?xml version="1.0" encoding="utf-8"?>
<svg data-name="Layer 1" width="883.27231" height="604.19846" viewBox="0 0 883.27231 604.19846" xmlns="http://www.w3.org/2000/svg">
  <polygon points="882.877 604.198 0.321 604.198 0.321 602.017 883.272 602.017 882.877 604.198" fill="#3f3d56"/>
  <path d="M 695.136 139.317 L 684.593 144.667 C 672.449 120.754 656.36 99.059 637.002 80.496 C 541.94 -10.894 390.252 -7.905 298.863 87.156 C 207.474 182.218 210.462 333.907 305.523 425.295 C 323.616 442.724 344.344 457.191 366.943 468.164 L 361.785 478.803 C 187.991 394.415 170.722 153.536 330.701 45.219 C 455.748 -39.447 626.709 4.695 695.136 139.317 Z" fill="#e6e6e6" style=""/>
  <path d="M 338.43 359.274 C 293.417 406.096 315.97 484.089 379.026 499.661 C 408.291 506.888 439.188 497.953 460.078 476.222 L 474.604 461.113 L 352.956 344.164 L 338.43 359.274 Z" fill="#e6e6e6" style=""/>
  <path d="M 344.805 335.584 C 337.617 343.076 337.852 354.974 345.329 362.178 L 456.905 469.444 C 467.342 479.478 484.729 474.451 488.2 460.394 C 489.812 453.869 487.82 446.982 482.976 442.324 L 371.401 335.059 C 363.907 327.872 352.01 328.106 344.805 335.584 Z" fill="#535461" style=""/>
  <path d="M 679.451 248.034 L 693.976 232.925 C 738.99 186.103 716.436 108.111 653.38 92.539 C 624.116 85.312 593.218 94.247 572.327 115.976 L 557.802 131.086 L 679.451 248.034 Z" fill="#e6e6e6" style=""/>
  <path d="M 548.907 123.279 C 541.719 130.773 541.953 142.67 549.43 149.874 L 661.006 257.14 C 671.452 267.168 688.834 262.127 692.296 248.068 C 693.9 241.552 691.912 234.675 687.077 230.021 L 575.502 122.756 C 568.008 115.568 556.111 115.802 548.907 123.279 Z" fill="#535461" style=""/>
  <path d="M 349.024 184.99 C 305.764 196.917 258.395 205.894 241.421 191.967 C 250.714 176.496 256.074 161.246 256.529 146.275 C 256.631 139.424 259.406 132.885 264.26 128.051 C 270.774 121.759 279.822 118.819 288.789 120.081 L 300.016 121.656 C 300.394 121.709 300.77 121.769 301.144 121.836 C 312.192 123.929 320.681 132.826 322.255 143.961 C 324.619 160.195 332.574 174.25 349.024 184.99 Z" fill="#2f2e41" style=""/>
  <path d="M 390.752 339.012 L 407.57 342.48 C 413.051 343.61 416.112 349.488 413.897 354.627 C 411.765 359.573 405.744 361.475 401.158 358.655 L 375.433 342.833 L 331.739 240.116 L 354.37 233.569 L 390.752 339.012 Z" fill="#a0616a" style=""/>
  <polygon points="270.951 473.797 258.216 477.5 248.578 457.594 258.38 452.486 270.951 473.797" fill="#a0616a" style=""/>
  <polygon points="264.48 559.086 248.857 554.95 251.303 528.108 264.748 528.936 264.48 559.086" fill="#a0616a" style=""/>
  <path d="M 266.109 455.189 L 249.562 466.078 L 185.918 394.09 C 180.035 387.435 181.645 377.073 189.269 372.517 L 268.554 325.142 L 280.698 360.026 L 239.413 398.768 L 266.109 455.189 Z" fill="#2f2e41" style=""/>
  <path d="M 280.045 492.871 C 280.004 492.925 279.962 492.98 279.92 493.034 C 278.863 499.226 277.005 504.873 272.858 508.964 C 270.311 514.706 263.858 517.62 257.867 515.733 C 252.238 513.96 248.652 508.452 249.308 502.587 L 252.4 474.949 C 259.818 473.244 265.474 469.026 268.337 460.82 L 275.547 465.73 C 284.551 471.813 286.605 484.208 280.045 492.871 Z" fill="#2f2e41" style=""/>
  <circle cx="287.89" cy="153.602" r="25.47" fill="#a0616a" style=""/>
  <path d="M 309.946 194.317 L 269.794 227.571 L 266.667 213.884 L 273.676 203.2 C 275.62 192.719 274.364 181.16 271.022 168.9 L 297.219 168.924 C 298.35 178.832 302.208 187.474 309.946 194.317 Z" fill="#a0616a" style=""/>
  <path d="M 321.251 281.546 L 267.045 298.058 L 262.828 278.779 C 252.669 265.14 248.254 252.69 254.899 242.533 L 251.555 227.243 C 261.149 219.69 268.693 211.961 272.836 203.943 L 306.186 190.911 L 330.705 192.42 L 337.944 216.681 L 321.251 281.546 Z" fill="#55befa" style=""/>
  <path d="M 359.76 236.282 C 348.206 236.16 336.898 239.625 327.395 246.199 L 330.704 192.42 C 337.538 193.332 343.382 197.782 346.081 204.126 L 359.76 236.282 Z" fill="#55befa" style=""/>
  <path d="M 265.94 535.36 L 248.735 531.126 L 251.268 384.937 L 274.37 359.637 L 269.199 327.563 L 265.852 291.633 L 322.285 277.64 C 341.359 312.274 352.888 343.764 336.06 363.433 L 265.94 535.36 Z" fill="#2f2e41" style=""/>
  <path d="M 261.988 584.719 C 261.912 584.749 261.834 584.779 261.756 584.809 C 256.76 590.609 251.272 595.34 244.37 597.003 C 238.104 601.398 229.535 600.386 224.465 594.651 C 219.702 589.263 219.418 581.257 223.789 575.546 L 244.386 548.632 C 253.203 551.513 261.76 550.664 269.908 543.895 L 274.349 553.552 C 279.927 565.563 274.283 579.796 261.988 584.719 Z" fill="#2f2e41" style=""/>
  <path d="M 199.139 356.596 L 184.037 369.525 C 178.585 374.195 179.837 382.948 186.379 385.901 C 191.076 388.022 196.613 386.142 199.048 381.6 L 209.968 361.232 L 260.049 269.842 L 241.213 266.301 L 199.139 356.596 Z" fill="#a0616a" style=""/>
  <path d="M 263.066 272.408 C 253.284 269.456 244.122 267.717 237.015 270.012 C 238.505 251.579 241.575 235.112 251.555 227.243 L 265.742 228.91 L 263.066 272.408 Z" fill="#55befa" style=""/>
  <path d="M 316.322 147.696 L 261.848 144.345 L 262.519 133.45 C 281.535 120.628 299.693 121.746 316.993 136.802 L 316.322 147.696 Z" fill="#2f2e41" style=""/>
</svg>